/* XPM */
static char *_f5dc38410b747ccd7b0b7cb2e6d2c21daX02v1zSHI5dqGP[] = {
/* columns rows colors chars-per-pixel */
"40 40 2 1 ",
"  c None",
". c black",
/* pixels */
"                                        ",
"                                        ",
"                                        ",
"                                        ",
"                                        ",
"                                        ",
"      ............................      ",
"      ............................      ",
"      ............................      ",
"      ............................      ",
"      ............................      ",
"      ............................      ",
"      ............................      ",
"      ............................      ",
"      ............................      ",
"      ............................      ",
"      ............................      ",
"      ............................      ",
"      ............................      ",
"      ............................      ",
"      ............................      ",
"      ............................      ",
"      ............................      ",
"      ............................      ",
"      ............................      ",
"      ............................      ",
"      ............................      ",
"      ............................      ",
"      ............................      ",
"      ............................      ",
"      ............................      ",
"      ............................      ",
"      ............................      ",
"                                        ",
"                                        ",
"                                        ",
"                                        ",
"                                        ",
"                                        ",
"                                        "
};
