/* XPM */
static char *_5cd866ef2c449aff27d6f09e3f19a65aXCasFhs3QG2Br8Y[] = {
/* columns rows colors chars-per-pixel */
"50 50 2 1 ",
"  c None",
". c black",
/* pixels */
"                                                  ",
"                                                  ",
"                                                  ",
"                                                  ",
"                                                  ",
"                                                  ",
"                                                  ",
"        ..................................        ",
"       ...................................        ",
"       ...................................        ",
"       ...................................        ",
"       ...................................        ",
"       ...................................        ",
"       ...................................        ",
"       ...................................        ",
"       ...................................        ",
"       ...................................        ",
"       ...................................        ",
"       ...................................        ",
"       ...................................        ",
"       ...................................        ",
"       ...................................        ",
"       ...................................        ",
"       ...................................        ",
"       ...................................        ",
"       ...................................        ",
"       ...................................        ",
"       ...................................        ",
"       ...................................        ",
"       ...................................        ",
"       ...................................        ",
"       ...................................        ",
"       ...................................        ",
"       ...................................        ",
"       ...................................        ",
"       ...................................        ",
"       ...................................        ",
"       ...................................        ",
"       ...................................        ",
"       ...................................        ",
"       ...................................        ",
"        ..................................        ",
"                                                  ",
"                                                  ",
"                                                  ",
"                                                  ",
"                                                  ",
"                                                  ",
"                                                  ",
"                                                  "
};
