/* XPM */
static char *e42e906068814b66c1ae1d0db7efb0b2LXooEslPfl6gzCv9[] = {
/* columns rows colors chars-per-pixel */
"45 45 2 1 ",
"  c None",
". c black",
/* pixels */
"                                             ",
"                                             ",
"                                             ",
"                                             ",
"                                             ",
"                                             ",
"       ...............................       ",
"       ...............................       ",
"       ...............................       ",
"       ...............................       ",
"       ...............................       ",
"       ...............................       ",
"       ...............................       ",
"       ...............................       ",
"       ...............................       ",
"       ...............................       ",
"       ...............................       ",
"       ...............................       ",
"       ...............................       ",
"       ...............................       ",
"       ...............................       ",
"       ...............................       ",
"       ...............................       ",
"       ...............................       ",
"       ...............................       ",
"       ...............................       ",
"       ...............................       ",
"       ...............................       ",
"       ...............................       ",
"       ...............................       ",
"       ...............................       ",
"       ...............................       ",
"       ...............................       ",
"       ...............................       ",
"       ...............................       ",
"       ...............................       ",
"       ...............................       ",
"        ...                         .        ",
"                                             ",
"                                             ",
"                                             ",
"                                             ",
"                                             ",
"                                             ",
"                                             "
};
