/* XPM */
static char *abf65e816ab4446ebfd0c9fc6c713db0Vvw5p4HUcCKLlJNJ[] = {
/* columns rows colors chars-per-pixel */
"40 40 226 2 ",
"   c #080515",
".  c #120614",
"X  c #1D0B14",
"o  c #180A19",
"O  c #11040E",
"+  c #270B0D",
"@  c #240D16",
"#  c #2C0F18",
"$  c #271318",
"%  c #3A1C1E",
"&  c #35181B",
"*  c #2A160F",
"=  c #37201E",
"-  c #1B1625",
";  c #231421",
":  c #291824",
">  c #3B1D24",
",  c #361C22",
"<  c #201C33",
"1  c #3F2125",
"2  c #3D2428",
"3  c #262537",
"4  c #441E1C",
"5  c #47251D",
"6  c #46321B",
"7  c #532E1F",
"8  c #451F25",
"9  c #422424",
"0  c #4C2523",
"q  c #442823",
"w  c #4C2B25",
"e  c #41242A",
"r  c #4D2B2C",
"t  c #48272B",
"y  c #522E2D",
"u  c #562A25",
"i  c #55322C",
"p  c #5C332C",
"a  c #583827",
"s  c #4C2A30",
"d  c #4E3532",
"f  c #5A3633",
"g  c #573835",
"h  c #50312C",
"j  c #63392D",
"k  c #673629",
"l  c #653B34",
"z  c #6A3E34",
"x  c #673C39",
"c  c #783D34",
"v  c #743C2E",
"b  c #5C4224",
"n  c #5D442D",
"m  c #54423B",
"M  c #664A2B",
"N  c #694E2E",
"B  c #644428",
"V  c #6B502F",
"C  c #78542D",
"Z  c #6C4437",
"A  c #6B403A",
"S  c #684A38",
"D  c #734335",
"F  c #794235",
"G  c #74433A",
"H  c #7A453A",
"J  c #7D4B3C",
"K  c #734B3A",
"L  c #6D5132",
"P  c #735635",
"I  c #775938",
"U  c #7A5A38",
"Y  c #3B3A47",
"T  c #733F44",
"R  c #594643",
"E  c #684943",
"W  c #744941",
"Q  c #7A4C43",
"!  c #774948",
"~  c #79544C",
"^  c #7B5444",
"/  c #785652",
"(  c #6F5354",
")  c #834B3D",
"_  c #834938",
"`  c #825C34",
"'  c #85593B",
"]  c #88553C",
"[  c #955B3F",
"{  c #8D6335",
"}  c #8D663C",
"|  c #86613B",
" . c #946B3C",
".. c #9A6E3E",
"X. c #906636",
"o. c #9B713F",
"O. c #884945",
"+. c #855244",
"@. c #8C5444",
"#. c #8C5549",
"$. c #865946",
"%. c #925443",
"&. c #925A44",
"*. c #995D46",
"=. c #945C4A",
"-. c #9C5D4B",
";. c #95574A",
":. c #885D53",
">. c #955857",
",. c #A25D45",
"<. c #A25F52",
"1. c #8B6649",
"2. c #9C6E42",
"3. c #9C624E",
"4. c #9A6B4A",
"5. c #956646",
"6. c #9E7142",
"7. c #9A734C",
"8. c #95714D",
"9. c #8B6A55",
"0. c #9B6353",
"q. c #996558",
"w. c #957459",
"e. c #A3624D",
"r. c #A46B4A",
"t. c #A37545",
"y. c #A57947",
"u. c #A97C46",
"i. c #A2744C",
"p. c #A67B49",
"a. c #AA7E4B",
"s. c #A9754E",
"d. c #AA6653",
"f. c #AA6A54",
"g. c #A46B5C",
"h. c #AA6C59",
"j. c #A56654",
"k. c #B26C53",
"l. c #B46C57",
"z. c #AB7452",
"x. c #AC7E52",
"c. c #A87958",
"v. c #B57257",
"b. c #B2725B",
"n. c #BB735D",
"m. c #B87A58",
"M. c #B07C49",
"N. c #8D6E64",
"B. c #8B6F6A",
"V. c #9A7C65",
"C. c #997969",
"Z. c #986361",
"A. c #A56D63",
"S. c #A97364",
"D. c #B57361",
"F. c #BA7964",
"G. c #B77969",
"H. c #C2765B",
"J. c #C47D62",
"K. c #C67C69",
"L. c #AE814D",
"P. c #B4844D",
"I. c #BB884F",
"U. c #AE8252",
"Y. c #B38553",
"T. c #B68954",
"R. c #BC8A55",
"E. c #BC8D5A",
"W. c #BA8656",
"Q. c #BE925B",
"!. c #9F8069",
"~. c #A3836A",
"^. c #A88978",
"/. c #B88E6E",
"(. c #C18E56",
"). c #C18D59",
"_. c #C1805C",
"`. c #C19056",
"'. c #C5955B",
"]. c #C8975D",
"[. c #C7985D",
"{. c #C9995D",
"}. c #C4826C",
"|. c #CC856B",
" X c #CB8765",
".X c #D1866B",
"XX c #D38A6E",
"oX c #CB9B61",
"OX c #C59564",
"+X c #D19F62",
"@X c #D6976E",
"#X c #CD8B74",
"$X c #C78876",
"%X c #D58C71",
"&X c #D78A76",
"*X c #DE9477",
"=X c #DB947A",
"-X c #E1967A",
";X c #E49A7D",
":X c #9B9087",
">X c #B89985",
",X c #BDA191",
"<X c #BEB4AF",
"1X c #D99885",
"2X c #C99681",
"3X c #E39C82",
"4X c #E8998A",
"5X c #C3AC98",
"6X c #EFA98C",
"7X c #E8A286",
"8X c #F8B798",
"9X c #EEA495",
"0X c #CBB7A4",
"qX c #CEBCAD",
"wX c #FDB6A6",
"eX c #D0C4BC",
"rX c #FFC7B6",
"tX c #DBCBC2",
"yX c #DCD2CC",
"uX c #E7DBD4",
"iX c #EACFC0",
"pX c #EFE3DA",
"aX c #F3E9E2",
"sX c #FCF2E9",
"dX c #FFFFFE",
"fX c #FEFDFC",
/* pixels */
"{  .[ ^.<X1. . .2. . .2. .2. . . . . . . . .1.{ } } | | | | C | ` C C C C C V 6 ",
"u.P.M.iXsX/.P.I.I.P.I.P.T.T.T.I.I.Y.Y.P.P.P.L.L.L.u.L.y.t.t.o.o..... . .X.X.{ b ",
"t.P.u.qXuX/.L.P.P.I.Y.I.P.P.Y.Y.T.T.Y.a.7.U.Y.a.u.u.y.y.t.t.o.o.o... . .X.X. .b ",
"u.M.8.pXdX5XL.I.P.I.R.I.T.R.T.I.R.s.J l r 2 d 8.L.L.y.y.u.t.t.t.o..... . .X.X.b ",
"u.P.w.aXdX0Xa.R.I.I.R.W.R.R.R.E.4._ #.3.=.D 1 - ^ L.L.y.u.y.t.t.6.6.6. . . . .b ",
"M.I.V.aXdX0XU.I.R.R.I.(.R.R.).4.F &.h.F.f.=.+.e - 8.L.a.u.y.t.t.6.6.2.2... . .b ",
"P.P.V.aXdX0XY.R.R.R.W.(.R.(.Y.v %.f.G.G.D.j.+.Z $ S Y.p.p.p.y.y.y.t.6.6...o. .b ",
"P.I.V.aXdX0XY.R.).R.).R.).'.` p D.F.g.G.F.0.J l d m L.L.L.p.y.u.y.t.6.6.6.o.o.b ",
"P.I.V.aXfX0XT.(.).).).`.E.).$.~ A.A.G G.$Xe.H y m m 8.L.L.a.p.p.6.L.o.6.6.6.o.b ",
"Y.R.~.sXdX0XT.Q.`.`.`.`.Q.T.C.( +.q.0 q.D.<.x : - - U.Y.L.L.a.L.L.6.7.o.L.6.6.b ",
"T.(.V.yXfX,XE.Q.`.E.'.'.'.E.E E 1X&Xc d.&Xe.y Y Y < 1.T.U.L.L.p.o.L.o.L.6.6.6.M ",
"R.(.9.:XeXN.T.[.'.'.'.'.oX4.e x #.Z.K.3X}.@., - 3 < S Q.Y.U.L.L.L.L.L.6.u.6.y.N ",
"R.R.V.qXeX>XQ.[.'.'.'.`.{.i.> y t ( A.A.>.f X     . 1.R.Y.L.L.L.L.6.L.L.y.u.p.M ",
"R.`.^.tXyX,XQ.Q.'.'.'.'.'.oX7 s O.T ! T e ; o     S '.Y.Y.Y.U.L.L.L.L.7.p.7.y.M ",
"R.`.V.tXuX>XQ.[.OX'.'.'.`.oX' 2 T >.Z.8 . o 2 9 w.'.R.T.T.U.P.L.7.L.L.L.L.6.p.N ",
"R.[.7.~.^.U.Q.Q.'.'.'.'.'.oXc.$ s / g o o > x K Q.R.T.T.T.T.T.U.L.L.L.L.6.L.6.M ",
"R.].].R.I.'.[.'.].'.'.].'.oXy..         , x ! l c.Q.R.Y.T.T.Y.U.U.L.L.p.y.p.L.M ",
"R.].].].'.].[.'.].'.'.'.].'.'.i o     ; x #.;.c ) z.W.W.T.Y.Y.Y.P.L.L.L.L.p.y.N ",
"R.[.].].'.{.[.[.].].'.'.].].+XE.j X @ t G =.h.g.z.v.v.x.W.T.Y.P.U.Y.L.L.p.p.p.N ",
"R.'.].'.].'.'.[.'.].oX].oXE.7.a $ $ 8 f O.-.}.=X=X1XXXv.0.U.Y.Y.L.Y.L.L.L.p.L.M ",
"R.[.[.{.].[.[.[.'.[.].[.4.D i % % 1 p +.A.F.K.%X3X|.k.m.n.s.s.Y.U.U.U.U.a.a.a.M ",
"R.[.oX].].].'.].].].[.4.] @.z q y x H #.b.n.K.XX.XH.H.XX;X*XJ.z.Y.Y.U.P.L.x.p.V ",
"R.].'.].].].[.[.[.oXY.J =.D p i Z @.H @.D.G.K..X%X%X.X-X8X8X7X}.i.U.U.L.L.a.a.V ",
"E.].'.].[.[.[.{.[.oX5.A D f j l F O.c %.d.l.J.&X-X;X*X;X8X8X6X;Xb.a.Y.Y.P.a.a.V ",
"R.'.].'.[.[.'.{.{.+XU q i l c z ) ) c %.,.l.J.%X-X-X;X;X3X6X6X7X Xr.Y.P.L.L.a.V ",
"R.'.'.'.'.[.[.'.].+X' % y D ) %.,.O.O.,.l.v.H.XX*X-X&X%X%X*X-X-X Xe.x.Y.L.a.a.V ",
"T.'.'.'.].'.'.[.'.{.a.9 g K @.e.d._ _ d.%X}.J.=X-X3X}.3.j.n.J. XH.&.i.P.L.L.a.V ",
"T.'.'.'.'.[.[.'.'.].E.w p H *.b.<.c +.2X#XD.,.%X4X=Xh.z 0 j.H.J.v.*.4.Y.L.L.L.L ",
"R.H.H..X'.). X'.'.].E.w i H e.b.*.k ) 1XG.G.A.2X3X|.;.p 0 D.;X%XH.k.[ a.L.L.L.V ",
"z.k.k.-X@Xf.%.E.OXoX'.a w D @.*.%.k j g.G.K.A.g.F.d.c > r K.7X7X.XH.[ r.U.L.L.V ",
"p.3.K.4X4XJ.<.m.'.'.].a & i F &.*.F 7 u >.S.<.+.@.D 4 # 9 S.;X;XXXH.,.} Y.L.u.V ",
"2.@.4X9XK.K.4X#X'.{.OX9 @ > z @.[ _ k 0 4 f :.+.9.S.j p & #.XX;X.XH.e.] U.L.L.V ",
"x.b.4X9X9X2X$XA.3.c.$.+ X 2 Z ] _ _ _ l 4 + y ^ 1./.$Xh.k k <.n.n.n.l.@.a.L.L.V ",
"r.m.1XwXrXwXK.O.A c 4 + X e Z @.) J @.Q j 0 y x +.^.>X$X}.e.&.-.-.-.e.&.7.L.L.N ",
"Y.R.m.m.%X7X$Xz W +.G 8 $ 2 z ) H c +.=.) l y 0 ~ B.W q.F.}.m.F.F.D.h.j.5.L.a.V ",
"Y.E.`.R.M.z.} a l W W y @ 2 A Q G c W $.O.A u 8 r 9 i x Q 0.h.h.f.e.e.@.' L.L.V ",
"L.R.R.(.).`.'.a.k 4 w 1 X , ( B./ ~ ~ 9.N./ A E g R 1 q f j H =.3.@.) z $.L.a.N ",
"P.R.R.R.R.(.(.].'.r.B 5 * & g ! $.#.q.q.0.5.q.q.$.g + X 9 q q i l Q K a 1.U.a.N ",
"Y.R.R.R.(.W.R.).`.'.[.'.8.= r l K _ =.j.f.j.h.h.=.F 5 + S P 7 % % q d g 7.L.u.L ",
"N P L P P I I P I I U U n X = q q w f l S S S Q G f w # g U L S h * X 6 L V N 6 "
};
