/* XPM */
static char *_77358d8c0ac4680c00ad4a391c5a91d9L4HQi7ETbcOaFkO[] = {
/* columns rows colors chars-per-pixel */
"40 40 225 2 ",
"   c #080A09",
".  c #0E0910",
"X  c #120E13",
"o  c #0A1114",
"O  c #131214",
"+  c #1C1314",
"@  c #1B161B",
"#  c #151B1B",
"$  c #1B1A1D",
"%  c #17181A",
"&  c #211714",
"*  c #231C1C",
"=  c #251919",
"-  c #1F201E",
";  c #20201F",
":  c #372B1B",
">  c #1E1D22",
",  c #181A24",
"<  c #211E23",
"1  c #3B1D24",
"2  c #1E2125",
"3  c #222225",
"4  c #2C2625",
"5  c #25252A",
"6  c #29262C",
"7  c #27282C",
"8  c #2A2A2D",
"9  c #282A26",
"0  c #342C2C",
"q  c #352C25",
"w  c #393326",
"e  c #2C2B31",
"r  c #282732",
"t  c #332E32",
"y  c #302D3A",
"u  c #343335",
"i  c #39343A",
"p  c #4E3D17",
"a  c #49392A",
"s  c #443B3A",
"d  c #443834",
"f  c #4F2B2E",
"g  c #7A3436",
"h  c #6A2C2C",
"j  c #56421D",
"k  c #584527",
"l  c #584738",
"z  c #494039",
"x  c #644C2B",
"c  c #7C5B2D",
"v  c #64543B",
"b  c #6C5838",
"n  c #755A36",
"m  c #7D633B",
"M  c #3D3D42",
"N  c #393742",
"B  c #443E43",
"V  c #494446",
"C  c #544D55",
"Z  c #585459",
"A  c #554F4D",
"S  c #69594A",
"D  c #665A58",
"F  c #755E4A",
"G  c #7B6244",
"H  c #756449",
"J  c #7D6E5A",
"K  c #766957",
"L  c #6C6856",
"P  c #635C63",
"I  c #605662",
"U  c #686464",
"Y  c #766C65",
"T  c #756E74",
"R  c #7F7A7C",
"E  c #7B7575",
"W  c #77746B",
"Q  c #8B3B3E",
"!  c #825E3A",
"~  c #82613C",
"^  c #84663A",
"/  c #BF3240",
"(  c #974E51",
")  c #9B5056",
"_  c #984A4F",
"`  c #A8494D",
"'  c #BA4347",
"]  c #B8525B",
"[  c #B0505B",
"{  c #85694A",
"}  c #93724C",
"|  c #856B55",
" . c #89755C",
".. c #95785B",
"X. c #8F704D",
"o. c #867363",
"O. c #83756A",
"+. c #877766",
"@. c #987D65",
"#. c #857E7A",
"$. c #907D7A",
"%. c #BA6D74",
"&. c #C7484C",
"*. c #CE4850",
"=. c #C45B64",
"-. c #D55766",
";. c #E25C64",
":. c #DA6368",
">. c #CE696E",
",. c #E2656C",
"<. c #E86B73",
"1. c #F16E7A",
"2. c #F4757C",
"3. c #E5717A",
"4. c #9A825E",
"5. c #9A8467",
"6. c #938476",
"7. c #97877A",
"8. c #948879",
"9. c #A38869",
"0. c #A28C7B",
"q. c #A59179",
"w. c #B3997B",
"e. c #7B7783",
"r. c #837C85",
"t. c #9C7583",
"y. c #C07686",
"u. c #FD7C84",
"i. c #FF7F89",
"p. c #898285",
"a. c #978B86",
"s. c #9B908A",
"d. c #968D93",
"f. c #9C9294",
"g. c #9C959A",
"h. c #8B8390",
"j. c #A4948B",
"k. c #A89787",
"l. c #B19B8C",
"z. c #AF9C93",
"x. c #A29698",
"c. c #A49B9D",
"v. c #AB9D9C",
"b. c #A39694",
"n. c #B89896",
"m. c #AD8E8F",
"M. c #ADA49D",
"N. c #ACA297",
"B. c #B2A396",
"V. c #B6AA9C",
"C. c #B7A38D",
"Z. c #9C9BA6",
"A. c #A59AA2",
"S. c #AB9EA4",
"D. c #AB9EAC",
"F. c #A29BA8",
"G. c #A5A3A5",
"H. c #ADA3A4",
"J. c #ABA9A4",
"K. c #A3A2AA",
"L. c #ACA4AC",
"P. c #ADA9AB",
"I. c #B2A5A3",
"U. c #B3AAA5",
"Y. c #BAACA5",
"T. c #B2A6AD",
"R. c #B4AAAD",
"E. c #B9ADAE",
"W. c #B8B1AA",
"Q. c #AEABB3",
"!. c #B2A6B3",
"~. c #B5ABB3",
"^. c #BAADB4",
"/. c #B5AEB9",
"(. c #BBAEB9",
"). c #BFA4B3",
"_. c #B5B2B5",
"`. c #BCB2B5",
"'. c #B4B2BA",
"]. c #BDB3BB",
"[. c #BCB9BD",
"{. c #BBB8B7",
"}. c #C28A95",
"|. c #D0858B",
" X c #D89CA1",
".X c #C5B2AB",
"XX c #D9ACBA",
"oX c #C1B4B5",
"OX c #C2B5BC",
"+X c #C4B9BD",
"@X c #CABCBE",
"#X c #C5BAB4",
"$X c #C4AAA9",
"%X c #EEADB5",
"&X c #BCBAC1",
"*X c #BAB5C2",
"=X c #BEAFC0",
"-X c #C3B5C2",
";X c #C2B9C2",
":X c #C5B9C1",
">X c #C6B9C5",
",X c #C5BBC3",
"<X c #C9BCC5",
"1X c #CBBDCB",
"2X c #C5BBC8",
"3X c #D6BAC1",
"4X c #CBC2C5",
"5X c #CBC2CB",
"6X c #C5C3C8",
"7X c #D5C5C8",
"8X c #D6C9D5",
"9X c #DDD5DA",
"0X c #CEC6D2",
"qX c #E4DADC",
"wX c #EBCDD5",
"eX c #DCCCE3",
"rX c #DDD3E7",
"tX c #E7DAE9",
"yX c #F3E9EE",
"uX c #EFE6F4",
"iX c #F6EAFB",
"pX c #FCF4FC",
"aX c #FEFCFE",
"sX c #F6F1F8",
"dX c #EDE3EF",
/* pixels */
"A.D.!.!././.L.K.&X[.A.d.~.>X&X'.L././.Q.D./.>XQ.L.+X].T.!.L.~.[.(.~.!.~.'.*X{.g.",
"!.-X(.-X'.&X;X].6X8X2XR.].1X2X;X/.].;X>X^.OX<X(.R.+X;X'.].OX;X+X[.OX(.(./.[.[.A.",
"(.2X(.OX~.[.;X&X&X6X6XP.].4X2X].~.oX^.~._.R.[.+X].E.^.^.oX]./._.+X@X+X].~.[.(.f.",
"-X>X!.OX[._.~.&X6XJ.M.P._.[.`.R.oX@X+X+X_.~.P.^.^.^.E.E.-X<X`.+X-X(.oX-X>X;X-XT.",
"T.oXoX+X4X{._.;X^.8.W.@X_.T.`.oXx.r.R d.G.{.[.~.E.`.E.E.(.=X-X-X+XOX(.OX1X1X>X^.",
"T.~.OX+X4X&X].:XE.M._.,X+X~.R.U 4 + O O * M #.P.:X4X+X^.!.-X-X(.~.+XoX(.<X<XoXS.",
"D.^.(.~.^.~.^.].].~.(.].:X:XI $ . O @ $ $ # ; 0 i d.<X:X>X>X>X].OX4X,XoX(.^.R.x.",
"T.<X(.^.!.^.^.^.~.-X-X-X7Xh.< , 3 3 5 2 3 - ; $ . V L.:X1X1X+X^.oXOX#X^.~.`.T.f.",
"T.<XOX(.(.oX!.T.OX>X-X>X!.i @ < 8 3 3 < * < < < X N Z.-X>X:X_.E.R.R.R.^.oXOX:XA.",
"A.OX~.(.^.D.T.OX1X:XOXqXT = = < 6 ; $ ; < < < < @ e L.4X~.E.E.^.^.E.E.@X<XOXOXT.",
"x.!.(.!.(.A.OX].-X4X~.E t > < < 6 3 ; 3 < < < < @ < T =X@X^.E.T.E.E.^.OX-X(.~.c.",
"D.!.OXOXOXT.^.^.+XT 0 t 5 $ @ < 5 4 3 < < < > < < < , i p.:X@XR.T.`.oXoX(.^.!.S.",
"T.!.`.^.-XL.c.+XE $ . 9 u 7 5 5 ; % $ * < < < @ * 3 $   6 d.<X^.(.:X:X^.(.-X-XT.",
"D.D.`.].=Xg.H.+Xs O O + ; 7 e M U R D s 0 4 * 0 d ; O   O r.(.^.<X-X-X-X-X(.>X(.",
"I.T.H.[.Q.P.&X6XZ . X @ $ $ 3 i P c.p.A q * + : 0 @     V c.:X1X2X^.~.OX-X(.-X~.",
"b.H.J./.K.'.&XQ.F.Z < . + * > < < 0 0 4 = @ + & + % i U f.`.3X1X<X(.].OX-X-X(.S.",
"G.J.'.[.P.6X6X'.P.P.p.V 4 * 3 > @ + = = # 3 2 9 d S O.s.`.>X-X>X+X`.oX@X-XOX~.A.",
"P.{.&X[.J.'.2X,X'.M.k.O.q O   C T S a D f.C o o a | ..6.E.+X(.].oX^.E.~.^.(.[.D.",
"K.'.'.'.P.'.Q._.,XV.| q.W 2   C W.6.{ w..XM   3 J @.F o.v.E.oXE.R.E.E.E.T.(.<X!.",
"Z.Q.*X&XP.'.P.P.#Xs.b  .s.a.V V N.9.{ w.j.0 A a.a.@.x v z.#XM.x.H.E.oX^.oX-X<XL.",
"Z.'.&X'.K.[.P.M.W.J j n ..N.8.s o.0.0.q.S w $.z.@.G k a 8.<X#XY.H.M.I.R.T.~.+XA.",
"G.Q.'.J.J.'.R.N.z.H x j b ..J : l 6.s.+.w a J  .v x b x  .Y.@X<X<XE.f.s.E.oXT.d.",
"K.P.P.J.c.H.M.Y.z.{ ~ x p k J l 0 D O.s w J H j p b { n ..n..X1X5X+XM.f.H.E.c.c.",
"P.P.P.P.x.E._.R.l.} m ^ n a o.j.s i V * Y j.H v | @.{ ~ @.l.Y.OX4X[.{.`.I.s.M.E.",
"P.Q.T.S.b.oX+Xb.w.4.n c 4.b H .XU.z + Y #Xz.a F l.5.! ! 4.q.l..X+X_.{.4X@XV.J.P.",
"Q.Q.H.c.f.oXoX$.9.5.~ c 9.v a 6.#XE z s.V.J = D k.@.! } 9...K a.[.[.[.,X7X`.T.H.",
"L.[.^.H.H.-X#.O.| } } ^ 4.J : a K Y S L L : : $.n.9.} ..{ | 8.U D d.{.7X#X{.+XD.",
"D.E.v.#.T P < r.k.m m } 5.C.J v J +.W #.6.L 7.Y.C.5.X.| +.$XtXr.2 u A U Y R f.a.",
"Z C A i 8 3 O Z rXW.q.5.4.q.C.w.l.z.B.B.B.B.k.9.7.k.z.#XqXpXsXe.2 , , 2 9 u i M ",
"< 5 > < 3 3 5 5 *XsXqX8X.XB.B.Y.W.W.V.v.V.V.Y..X7XqXyXaXaXaXK.i 2 7 5 3 2 2 3 2 ",
"5 5 5 7 7 3 5 , P tXiXpXpXyX7X.X}.n.n.:XqXyXsXpXaXaXaXaXpXZ.M 2 7 8 7 5 8 8 e 5 ",
"r 5 5 5 5 5 2 3 > h.dXuXdXXX}.%.%.>.>.|.%XwXqXpXaXpXaXaXZ.N , r 8 8 e e 8 8 8 5 ",
"5 e 7 5 5 5 < < , r (.tX0X$Xn.y.=.-.;.*./ ] }.wXdXiXpXZ.y , < 6 r t t r 7 8 8 9 ",
"5 r e 7 5 < < 5 < $ I 8XrXeXeXeX|.<.:.' =. XXX8XtXiXF.y , 7 r y e e 7 7 8 e e 7 ",
"5 3 6 8 e 6 < < < 3 6 /.uXtXeXXX>.2.:.` y.qXiXiXiXD.i , r e e r 5 6 e t e e 7 2 ",
"5 5 3 5 6 r e 6 > 3 $ P tXeX}.] :.2.<.=.=.y.3XtX!.N , 7 8 6 5 6 8 e e r 7 7 7 7 ",
"5 e r 6 < 5 e < 3 $ < , Z.n./ [ <.1.<.,.-.] %.t.N , 5 5 5 5 8 e e e 5 5 7 7 e 7 ",
"2 7 e e e 7 < 6 3 > 3 # B _ ' &.;.u.u.1.u.3.) 1 $ 5 5 5 8 8 8 7 4 6 8 7 r 7 2 2 ",
"5 5 7 7 e r 8 6 3 3 2 3 * g ' *.;.u.i.u.u.=.a * 6 7 e e r 8 5 3 3 7 6 3 > > - # ",
"% > , $ $ < 3 < $ $ , * $ < h g Q _ ) ) _ f # # > < 3 < $ $ > 3 4 9 4 q w q w 0 "
};
