/* XPM */
static char *ceaaa5f021d444c5afee3b27a5863534X65JYQ0rufASIcWk[] = {
/* columns rows colors chars-per-pixel */
"40 40 119 2 ",
"   c #2E1207",
".  c #2F1309",
"X  c #341407",
"o  c #3A1607",
"O  c #3F1807",
"+  c #341509",
"@  c #3B1708",
"#  c #3E1809",
"$  c #461300",
"%  c #4B1500",
"&  c #431A07",
"*  c #4C1D07",
"=  c #441A09",
"-  c #4C1D09",
";  c #501700",
":  c #531C04",
">  c #5B1B00",
",  c #511F09",
"<  c #621E00",
"1  c #4E200B",
"2  c #572107",
"3  c #5B2207",
"4  c #55210A",
"5  c #5B230A",
"6  c #632305",
"7  c #6B2100",
"8  c #642609",
"9  c #682709",
"0  c #66280A",
"q  c #6C290A",
"w  c #742500",
"e  c #7A2700",
"r  c #732C0A",
"t  c #7A2F0B",
"y  c #7E300B",
"u  c #554C49",
"i  c #56514F",
"p  c #5C524F",
"a  c #565150",
"s  c #5B5451",
"d  c #635A57",
"f  c #6C5D56",
"g  c #735F56",
"h  c #7C6357",
"j  c #842B01",
"k  c #8B2D00",
"l  c #83320A",
"z  c #8B350A",
"x  c #8F390E",
"c  c #943201",
"v  c #9D3501",
"b  c #91370A",
"n  c #94390B",
"m  c #9C3D0C",
"M  c #A33500",
"N  c #A53901",
"B  c #AD3A01",
"V  c #A33E0C",
"C  c #B23600",
"Z  c #B33D00",
"A  c #BA3D00",
"S  c #A03F10",
"D  c #C03900",
"F  c #A5400D",
"G  c #AB420D",
"H  c #BD4101",
"J  c #B3450C",
"K  c #BA470B",
"L  c #BC490D",
"P  c #C44301",
"I  c #CC4601",
"U  c #CD4802",
"Y  c #C44B0D",
"T  c #CC4E0D",
"R  c #D34902",
"E  c #DA4C02",
"W  c #D04F0D",
"Q  c #CE500F",
"!  c #D4510D",
"~  c #DB540D",
"^  c #CC5010",
"/  c #D25210",
"(  c #E24F02",
")  c #E65102",
"_  c #E2560D",
"`  c #E7580D",
"'  c #EA5A0E",
"]  c #896756",
"[  c #856758",
"{  c #886758",
"}  c #8C6A5A",
"|  c #946C56",
" . c #936C5A",
".. c #9D705B",
"X. c #A4735B",
"o. c #AB7659",
"O. c #AC795E",
"+. c #B37D5F",
"@. c #BA7D5D",
"#. c #9E7560",
"$. c #A77861",
"%. c #B47D61",
"&. c #C47B54",
"*. c #C97C54",
"=. c #BC8162",
"-. c #CA815B",
";. c #D3855C",
":. c #DA875B",
">. c #D7895E",
",. c #DD895D",
"<. c #E18C5D",
"1. c #C48361",
"2. c #CC8761",
"3. c #D38962",
"4. c #DB8C62",
"5. c #E08E62",
"6. c #928B88",
"7. c #96908D",
"8. c #E2B398",
/* pixels */
"8.;.;.:.X.$.5.>.:...%.4.>.:. .=.4.;.:. .1.4.3.:.} 2.4.3.-.} 3.4.>.*.} 3.3.4.&.6.",
";.D Y R w w R P R < j R D R : c R P U % N I P P % Z I P H % A P I J % P P U M u ",
"} % = 4 = = 4 # 4 = = , # 4 # 1 1 = 5 + - 1 = 4 o 4 - - 4 + 4 - = 4 @ 4 = 1 $ f ",
">.I 4 L Q Q L 4 ^ T / J 5 ! ^ ! F 8 / Q ~ n q ! T ! l r ~ ^ ~ r l ~ T ~ q n E 4.",
"X.e + t l l t X l l l r + l l l 0 o l l z 3 & z j z , = x l z - , z l l = 5 j X.",
"O.e z z * 4 z l z = 3 z l z @ 8 z l z + q z l l + t z z t X y l l t X l l z 7 a ",
"4.P ^ ~ y y ! T ~ r z ~ T ! 8 m ! T ! 3 G ! ^ ^ 4 J T ^ Y , Y T T L 4 Q Q Q B s ",
"} $ + , & = * X , = = - o , & - * X , O * = o , o 4 = @ , O , O & 1 @ 4 @ = $ h ",
",.R 4 ^ ~ ~ Y , ! ! ~ L 3 ~ ! _ G 8 ` W _ S r _ ! _ z t ` W ` y z ` W _ r m E <.",
"..7 . q r r q X r r r 8 + r r r 5 X t q r , o t q t * = t r t = = t r t o 4 w ..",
"%.k n S 3 3 m n m , 9 V n m = r m n m & t m n n @ l m n z O z n m z @ n n m e a ",
"3.H L T r r T L T 9 l Y L T 3 b Y Y Y , V Y Y Y * G Y Y K * J Y Y G * L Y Y v a ",
"} % + 4 - * , + 3 * , * X 4 - , % X 3 - , = @ > - , = @ 3 = 3 @ @ 3 - 5 + - % h ",
"<.E 5 / _ ~ ^ 4 ~ ~ _ Y 5 _ ~ ` J q ` ! ` S r ' ~ ` b l ' ~ ' l b ' ! ' r F ) <.",
" .> . 5 8 8 5 . 8 8 8 3 + 9 8 0 , X q 5 0 , o q 8 0 = & q 5 q @ = 9 5 q + 1 6 | ",
"1.v F J 8 0 J F J 4 r G V G * y G G G = b V V S = n V V V & V V G n = F F G j a ",
"1.B J L q q L G L 8 t L V L , l K J J * b J J J & m J J V & V J J m & G J K c a ",
" .:   3 3 3 3   5 3 3 , X 8 3 8 * X 8 2 8 * X 8 3 6 = o 8 3 8 O & 8 3 8 + * > ] ",
"<.E 5 ^ _ _ T 5 ~ ~ _ Y 8 _ _ _ J q ` ~ ' V r ' ~ ' b y ' ~ ' l b ' ~ ' t F ) <.",
"} ;   3 , : ,   3 , , ,   5 , , - X 5 * 5 = X 5 , 3 & o 5 , 5 O # 3 , 5 X = ; [ ",
"2.Z L Y q r Y K Y 8 t Y J Y , z L J L , n Y J K * V L K J = J K L V * K L L v a ",
"%.v S V 5 8 V V V 3 r V V V , t F V V & l V V m O z V V n O n V V b O m m F j i ",
"..< + 8 9 q 8   9 9 q 5   q 9 q 2 X q 8 q * o r 8 r = & r 8 r O = r 0 q o * 7 | ",
"4.R 5 T ~ ~ ^ 3 ~ ~ ~ Y 5 _ ~ _ J 8 ` ~ ` V r ` ! ` b y ` ! ` l z ' ! ` r S ( 5.",
"{ % + , - - , + , = , * + 4 = , - X , = , = o 4 & : @ @ 3 = 4 @ = , & 3 + = % h ",
"3.P T W r t W Y ! q z W Y ! 8 n W Y W 3 V T Y T 4 J T T L * L T Y J , Y Y ^ N a ",
"%.k b n , , n z n * 8 n z n & 0 n z n @ t n z z o t n b z X l b b l o z b n w a ",
"$.< + q t t r   r t t 8 + t t t 8 X t t t 4 # y t t * = l r l = * t t l = 4 w X.",
"4.U , T ~ ~ Y , W ! ~ L 3 ~ W ~ G 8 ~ W ~ m q _ T _ z t ~ W ` t z ~ Q ~ q m E :.",
"{ % o , & & , X , = & * o : & = * o , O , = O : O * = = , X , & & 4 o 4 # = $ h ",
"4.I W ~ l l _ T ~ r b ~ T ~ 0 S ~ T ~ 3 J ! W ! 4 L ! W T : Y W ! L 4 Q ! / Z s ",
"$.w l l = - l t l = 4 l t l @ 5 l t l + 8 l t t X q y l r X r l y q X y y l < i ",
"O.j @ l z z l + z z b t + z z b q O b z b 8 & b z b 3 * b z b , 3 b z b - 5 k O.",
"*.P 1 L T T J , Y T T G 4 T Y W F 3 Q Y ! b 0 ! Y ! l r ! Y ! r l / Y ! 0 x U 3.",
"} % = 1 @ & , = , o = , = 4 o = 1 & 2 + * * & 4 + * - = 4   , - - , X , - 1 $ f ",
"4.R ~ ` l z ` ! ` t n ` W _ q G ` ! _ 5 J _ ~ ~ 5 Y ~ ~ ! 3 T ~ ~ Y 3 ~ ~ ~ A s ",
"$.< q r = = r 0 r @ 1 r q r + 4 r q q + 5 q q q + 8 q q q   0 q q 8   q q r > a ",
"%.b # x V S x @ m m F l = m m F y = F m F q 1 F m F 0 4 F S F 3 8 F S F 1 q M @.",
"*.C % B Z A B % H B H M % H Z H c ; P Z P j > P B P e 7 P B P 7 w P Z P 6 j A &.",
"6.u s d d s s s d d s s s d d s s s d d s s s d d s a s d d d i s d d s a s s 7."
};
