/* XPM */
static char *_379d3d75fe24e10fa666dd7232dc1e8oshGhirL76ZBZ9ej[] = {
/* columns rows colors chars-per-pixel */
"40 40 241 2 ",
"   c #391B23",
".  c #350C19",
"X  c #511718",
"o  c #6A231D",
"O  c #592425",
"+  c #5D3134",
"@  c #572E31",
"#  c #642C2C",
"$  c #6D2C25",
"%  c #762C26",
"&  c #79312C",
"*  c #693636",
"=  c #783936",
"-  c #7A413B",
";  c #6D403F",
":  c #7C3F40",
">  c #284358",
",  c #314B62",
"<  c #3B526A",
"1  c #44535F",
"2  c #7C4746",
"3  c #684C52",
"4  c #455464",
"5  c #585F67",
"6  c #465D73",
"7  c #5C636E",
"8  c #566572",
"9  c #4F637A",
"0  c #656466",
"q  c #77726D",
"w  c #833B32",
"e  c #853E39",
"r  c #80362F",
"t  c #84423B",
"y  c #8B4539",
"u  c #8A453A",
"i  c #90483E",
"p  c #97473B",
"a  c #98503C",
"s  c #803F40",
"d  c #884945",
"f  c #944B43",
"g  c #9B4C43",
"h  c #914746",
"j  c #8A544E",
"k  c #9D5345",
"l  c #9C554A",
"z  c #985646",
"x  c #8B5956",
"c  c #985B53",
"v  c #A34E43",
"b  c #A35446",
"n  c #AB5443",
"m  c #A55945",
"M  c #AB5A45",
"N  c #A45B4C",
"B  c #AB5C4B",
"V  c #A25248",
"C  c #B75D45",
"Z  c #A65C54",
"A  c #B45D50",
"S  c #996257",
"D  c #9D604B",
"F  c #B4644B",
"G  c #BA644D",
"H  c #BB674C",
"J  c #A86457",
"K  c #B56554",
"L  c #BD6A54",
"P  c #B36C5D",
"I  c #BC6D5B",
"U  c #B66754",
"Y  c #BB715F",
"T  c #876A67",
"R  c #996963",
"E  c #96746D",
"W  c #897574",
"Q  c #9B7A75",
"!  c #997C78",
"~  c #8E6E70",
"^  c #A76D62",
"/  c #AB7369",
"(  c #B57162",
")  c #BD7563",
"_  c #BE7A65",
"`  c #BA7A6A",
"'  c #A67A76",
"]  c #BA7D72",
"[  c #B66F6C",
"{  c #C26B55",
"}  c #C46E59",
"|  c #C86E54",
" . c #CC765C",
".. c #C47559",
"X. c #D5795A",
"o. c #C86B4D",
"O. c #C37A65",
"+. c #CC7B63",
"@. c #C37D6A",
"#. c #C87965",
"$. c #D37D67",
"%. c #E17F63",
"&. c #9C857A",
"*. c #8C8778",
"=. c #BB816F",
"-. c #A4847F",
";. c #A38678",
":. c #B4877C",
">. c #A8927C",
",. c #D2815C",
"<. c #E1865F",
"1. c #CA846C",
"2. c #DC8466",
"3. c #DD8B6C",
"4. c #D38569",
"5. c #C48472",
"6. c #CC8A75",
"7. c #C5897A",
"8. c #CA8C7A",
"9. c #C98775",
"0. c #D98B73",
"q. c #D68A79",
"w. c #CD927F",
"e. c #DB947C",
"r. c #D9977A",
"t. c #E28869",
"y. c #EA936D",
"u. c #E38E72",
"i. c #E98E76",
"p. c #EB9576",
"a. c #E4937C",
"s. c #E79779",
"d. c #F39B75",
"f. c #F59978",
"g. c #F09468",
"h. c #FCA37B",
"j. c #6D7880",
"k. c #8F7F83",
"l. c #8B8483",
"z. c #9A8A86",
"x. c #8E8E96",
"c. c #AC8983",
"v. c #AB8E8C",
"b. c #A58886",
"n. c #B98C81",
"m. c #AD9389",
"M. c #B5968A",
"N. c #A89694",
"B. c #B49593",
"V. c #B59A9B",
"C. c #BC9C96",
"Z. c #B9A29D",
"A. c #9B9AA0",
"S. c #BBA8A5",
"D. c #ACAEB7",
"F. c #C69284",
"G. c #CC9383",
"H. c #C99A86",
"J. c #D49683",
"K. c #DD9582",
"L. c #DD9B86",
"P. c #DA9D8D",
"I. c #C09E97",
"U. c #D68C8B",
"Y. c #E59D83",
"T. c #EA9B85",
"R. c #F39F83",
"E. c #DAA48D",
"W. c #C8A498",
"Q. c #D5AC9A",
"!. c #D6A997",
"~. c #DDB39E",
"^. c #DFB592",
"/. c #C4A18E",
"(. c #EEA38C",
"). c #E6A489",
"_. c #FAA384",
"`. c #F3A48B",
"'. c #F8A48A",
"]. c #E8A796",
"[. c #FCAC92",
"{. c #F3A892",
"}. c #E7B497",
"|. c #FBB49B",
" X c #FAB99B",
".X c #E3B38E",
"XX c #C7AEA7",
"oX c #D3AEA6",
"OX c #CAB1A8",
"+X c #D4B2A2",
"@X c #D9B3A4",
"#X c #DDBAAD",
"$X c #D8B6AA",
"%X c #DDBEB3",
"&X c #D8BCB6",
"*X c #E2B7A7",
"=X c #FDBAA2",
"-X c #E2BFB2",
";X c #F7C59D",
":X c #DCC2B0",
">X c #ECC5AE",
",X c #F2C3A7",
"<X c #E3C3B3",
"1X c #EDC4B2",
"2X c #EBCCB7",
"3X c #E6C6B9",
"4X c #ECCDBA",
"5X c #E7C8B8",
"6X c #F2CBB6",
"7X c #F2CCBB",
"8X c #F3C7B5",
"9X c #F4D2BC",
"0X c #F7D7B9",
"qX c #EDD0BD",
"wX c #D4C9C5",
"eX c #CDC9CB",
"rX c #F2CBC2",
"tX c #EDD2C5",
"yX c #EDD7C8",
"uX c #F5D3C2",
"iX c #F9D5C3",
"pX c #FDDBC6",
"aX c #FFDEC9",
"sX c #F7D8C9",
"dX c #F0D7CF",
"fX c #FEE1C6",
"gX c #FFE2CC",
"hX c #FFE9CF",
"jX c #FFE4D2",
"kX c #FFEAD4",
"lX c #FCEBDB",
"zX c #F7E3D6",
"xX c #FFF5DA",
"cX c #D1D4E1",
"vX c #E4DCE2",
"bX c #ECECEC",
"nX c #E2E4E9",
"mX c #FFECE1",
"MX c white",
"NX c #FEFBF4",
"BX c #F0EEF0",
/* pixels */
"$X5X3X3X7X1X3X3X5X5X5X<X<X<X3X<X<X3X3XXXN.*.N.D.<X4X<X%X%X%X%X#X%X#X#X#X#X#X*XOX",
"4XsXsXsXsXiXiXsXuXuX9XuXuXuXrXuXsXOXk.5 6 x.D.q j.N.uXiXuXuXuXuXiXuXuXuXuXrXuXtX",
"4XiXpXpXsXsXiXiXsXuXuXiXuXiXiXaXA., < D.A.nXnXq 8 8 Z.gXaXaXpXpXaXaXaXaXpXaXaX4X",
"5XpXiXpXiXpXpXpXsXpXpXiXsXiXaX&X< > j.cXD.bXcX7 8 9 l.fXaXpXaXpXaXaXaXfXaXaXaX4X",
"2XpXpXpXiXiXpXpXpXpXsXpXpXiXfXZ., , < l.nXD.vXA.8 6 7 4XpXpXpXpXpXpXiXpXpXpXpX4X",
"2XpXpXpXpXpXpXpXpXpXpXiXiXiXfXN.> , 1 0 z.W *.l.5 4 0 tXaXpXpXiX9X0X9X9X9X9X9X<X",
"2XpXpXpXpXpXpXpXpXiXiXpXpXpXfXZ.0 *.>.>.>.M.>.>.*.q T 0XpXpX0X9X2X9X9X9X9X9X9X<X",
"2XpXpXaXpXpXpXpXpXfXpXpXpXfXuXM.S c d u z z & t x E M.2XpXuX9X9X9X7X9X9X7X9X0X<X",
"4XpXpXpXpXpXpXpXpXpXpXpXpXpXrX2 X h e f } K h h = .   b.pXuXqX9X9X9X9XuXuX9X9X:X",
"2XpXpXpXpXpXpXpXpXpXpXpXpXpXgX*Xd p y B n p l e & # X #XkXpXpX9X6X8XiXgXjXuX9X<X",
"2XpXpXpXpXaXaXaXaXpXaXaXaXpXgX*XN U +.| | C M } N i S iXzXsX9X7X,X1XuXjXkXuXqX<X",
"2XpXaXpXaXpXaXaXaXaXaXaXpXaXaXF.B $.i.$.u.$.} q.} m J dXv.~ XX7X-X*XQ.7XjXuX9X<X",
"2XaXaXpXaXaXaXaXaXaXaXaXaXpXaX1Xc #.T.} A n K $.P l :.zXV.3 T C.W.+X!.@X-X7X0X<X",
"2XpXaXaXaXaXaXaXaXaXaXaXaXaXaXaX:.l P Z Z Z l Z h ^ rX$Xb.Q Q ~ ! $X1X7X7X9XiX5X",
"2XfXpXaXaXaXpXgXgXaXgXgXaXaXpXjX%Xd h f ^ Z h d 2 oX<Xn.Z.v.v.v.! ! rX9X9X9XiX2X",
"2XpXfXaXaXaXfXfXaXaXaXaXgXaXpXaXpXc 2 [ U.U.c = x rX-.c.B.W.-.E ! ~ /.iX9XiXiX5X",
"2XpXaXgXaXaXgXgXgXaXaXjXgXgXaXpXjX] * c Z c 2 : T oXQ b.z.M.oXn.W ~ b.iXsXaXfX2X",
"4XaXfXaXaXgXgXgXjXgXjXaXgXaXaXgXjX:.* x ] ' 2 + R XXc.v.k.c.B.XXS.b.k.jX*XM.Z.3X",
"4XpXaXaXgXgXgXgXgXjXjXjXjXjX0X}.E.J = * + @ O * R oXc.V.b.v.k.' b.v.I.W.c.W.' ~ ",
"2XaXaXaXaXgXgXgXjXjXjXaX7XL.4...r.c f t # O - u l ,Xn.B.V.C.v.v.v.b.oXQ lXlXmX-.",
"2XfXpXfXgXgXjXgXaX8X|.Y.3.<.t.y..Xm a m m b b a 1.;Xr.G.-.k.b.C.B.XX&X' mXjXmX' ",
"qXpXaXgXjXgXjXjXL.....2.g.g.t.).,X..H  . .} ..L .X}.g._.a.' ~ V.<XsXtXT XXzX&Xq ",
"2XpXpXgXjXkXkX1X .+._ a.y.4. .}.fXs.s.y.3.2.2.r.0X;Xd.h.h.'.F.b.4XpXjX-XQ T 3 W ",
"qXaXfXgXjXjXjXr.X.3.9.q.4.1._ ~.xX.Xr.r.3.,.r.,X0Xs.p.h.d.d.f.4.G.rXaXjXgXv.eXbX",
"qXfXfXgXjXkXuX+.,.2.O.@.) _ ` /.xX}.O.` _ 1.^.fXr.r.s.d...L r.h.R.T.rXjX#XXXMXbX",
"2XpXaXgXgXkX1X.. .+.Y ..) 5.5.H.xX>X5.` ` ~.hXQ.5.r.`.e.U I 3.d.f.%.L.aX/.wXMXbX",
"qXfXfXgXjXkX1XU F S P O.O.5.8.7.<XxX+X=.Q.xX@X] =.8.r.6.6.s.h._.R.%.$.7XW.Z.MXbX",
"2XfXjXjXjXkX0XP z 2 x ( 5.9.w.7./.lXNXzXxX$X7.7.7.8.9.` r.`.[.[.R.%.} ~.9XQ wXbX",
"4XfXgXjXjXjXjX6.J - x ( @.6.7.G.].!.<X<XF.7.U.J.8.G.7.] 8.(.[.[.'.i.} !.gX<X&.z.",
"2XfXgXgXgXkXpX6. .f j ^ ) 9.J.].}.J.Q.( @.K.].Y.J.G.] S c @.T.R.R.a.A P.jXaXuX$X",
"2XfXgXhXgXkX6X..X.k d x S @.Y.].P.+XNX$X@.].=X].G./ : + # y #.u.i.$.M ~.gXaXpX4X",
"qXfXgXgXgXkX~.F o.y = j j J ` 8.J +XMX+XP ].~.F.' x = # O e G $.0.L N 1XgXaXaX4X",
"2XfXgXjXgXhXw.H o.& t t z k B B M 9.yX^ k ( S c j d d @ # I X.t.+.M N 8XgXpXaXtX",
"2XfXfXgXhXpX@.| C & z k b M G O.#.Y.r.m p i = e : = & X V R.p.a.O.m M -XjXaXaX4X",
"qXfXfXgXhX6XI  .C % B L K G +.{.T.T.a.T.O.V i r o r & % U [.`.T.Y.#.A @XjXgXaX4X",
"2XfXfXgXhXE.M { n % B H H { #.R.[.`.[.=X{.K.P e w s s & I [. X|.{.@.Z Q.jXaXzXrX",
"2XfXfXgX0X4.{ F p $ N L G L #.a.`.R.=X|.K.K.) B C A v r A R.=X X].( l W.kXgXjXtX",
"2XfXfXfXE.3.u. .z $ m F m F I 0.a.a.{.{.e.A p v v n v o L i.|.=XK.` S Q.jXjXjXtX",
"0XpXfX6X0.p.f.s.B t U J B K O.K.e.e.].T.Y.K a g C A s o K u.T.].7.P S >XjXjXjXtX",
":X2XqXH.+.t.u.3.i S ( m k Z P q.9.6.K.6.9.P l N Z g w o N $.@.] ^ j x <XyXtXtX3X"
};
