/* XPM */
static char *_4098249f62241ffbbe53d9d666f0291tlw7rev7JRq8sKsV[] = {
/* columns rows colors chars-per-pixel */
"40 40 159 2 ",
"   c #1E1B1A",
".  c #2E1E17",
"X  c #241E1D",
"o  c #2C1F1B",
"O  c #331D15",
"+  c #321F18",
"@  c #381F1B",
"#  c #25201E",
"$  c #2C221E",
"%  c #382317",
"&  c #35241D",
"*  c #3B241D",
"=  c #34291E",
"-  c #3C2A1D",
";  c #262423",
":  c #2B2624",
">  c #2D2826",
",  c #2D2B2A",
"<  c #332622",
"1  c #3A2621",
"2  c #342925",
"3  c #3B2A24",
"4  c #322D2B",
"5  c #392D29",
"6  c #3B3022",
"7  c #32302F",
"8  c #3B322A",
"9  c #333232",
"0  c #383332",
"q  c #471E17",
"w  c #611E1A",
"e  c #43251C",
"r  c #4C261D",
"t  c #432A1E",
"y  c #4C2B1D",
"u  c #512617",
"i  c #5B2717",
"p  c #572F17",
"a  c #54261B",
"s  c #59271D",
"d  c #532C1C",
"f  c #572D1D",
"g  c #5A2B18",
"h  c #5D2B1A",
"j  c #5A2D1C",
"k  c #5F2C1E",
"l  c #44311C",
"z  c #49341A",
"x  c #4C351A",
"c  c #4D321E",
"v  c #4C391F",
"b  c #543416",
"n  c #5D3315",
"m  c #5B3A15",
"M  c #53321B",
"N  c #50341B",
"B  c #5B331D",
"V  c #5E311E",
"C  c #55391B",
"Z  c #5B391A",
"A  c #612D17",
"S  c #662D17",
"D  c #6E2D16",
"F  c #642019",
"G  c #6C261D",
"H  c #672D1B",
"J  c #642B1C",
"K  c #612F1F",
"L  c #6B2C1B",
"P  c #702715",
"I  c #792617",
"U  c #732E16",
"Y  c #712C1A",
"T  c #653217",
"R  c #6E3311",
"E  c #693614",
"W  c #6B3A16",
"Q  c #63341A",
"!  c #67301E",
"~  c #69311B",
"^  c #6B331A",
"/  c #6B371D",
"(  c #643A1B",
")  c #67391F",
"_  c #6C3B1B",
"`  c #7F3115",
"'  c #7D3314",
"]  c #743B16",
"[  c #733C15",
"{  c #793D17",
"}  c #71341B",
"|  c #7B3319",
" . c #713C1A",
".. c #7C3B1D",
"X. c #422720",
"o. c #4A2620",
"O. c #432B23",
"+. c #472920",
"@. c #4A2B20",
"#. c #482922",
"$. c #4B2D22",
"%. c #4C2E23",
"&. c #552720",
"*. c #5B2720",
"=. c #532C21",
"-. c #552E21",
";. c #502E27",
":. c #5C2B21",
">. c #5F2F20",
",. c #433222",
"<. c #4D3121",
"1. c #4B3124",
"2. c #4C3822",
"3. c #423229",
"4. c #523220",
"5. c #5B3324",
"6. c #533A21",
"7. c #632720",
"8. c #6C2B20",
"9. c #643621",
"0. c #693821",
"q. c #5C4616",
"w. c #55421C",
"e. c #5B431A",
"r. c #5C451D",
"t. c #684017",
"y. c #684217",
"u. c #63441A",
"i. c #6D4018",
"p. c #6D441A",
"a. c #7E4516",
"s. c #7D4C17",
"d. c #73441A",
"f. c #7D4618",
"g. c #7D4F1D",
"h. c #755417",
"j. c #7A5214",
"k. c #705D17",
"l. c #7C5D16",
"z. c #786119",
"x. c #574430",
"c. c #614629",
"v. c #754D24",
"b. c #715822",
"n. c #795922",
"m. c #8B2916",
"M. c #812A18",
"N. c #812E1C",
"B. c #853713",
"V. c #8B3315",
"C. c #8D3E16",
"Z. c #844114",
"A. c #894716",
"S. c #814A17",
"D. c #8A4A15",
"F. c #914413",
"G. c #905514",
"H. c #945F16",
"J. c #A15F12",
/* pixels */
"e A f < 9 , > , 3 O.e 2 : X d & X , , ; ; : : # U B.; 2 : - j.x 7 , ; , , , , > ",
"; i 8 , 9 , , 9 , 2 * H Q W B.h d e 3 & : 1.e e N.e , 9 4 y = - 2.2 ; 7 : 1 7 ; ",
", : < 4 , ; , , : , O.r & p.E u B 7.H K k / O.e k h , , , 3 : ; , x.7 , > , # , ",
"0 > e r , , , , , : ! < ; f * ; , 2 ; ; < : , : 1 T , , : ; 7 , ; 6 e.: , 9 , , ",
"> 1 s e X.2 9 , ; y M : : f 1 : , 4 , , 4 7 4 , y ! , , , : 7 , , ; q.& : , 4 , ",
"r a 4 , 3 o.3 5.y $.2 , : 9.2 : : 5 2 4 , > ; : y y , , : , 8 2 < 6 C , , 9 , , ",
"o.> , , , & ' ] & > , : 1 ) > , : ;.< 5 > , > X g * : , , : <.1 # x 6.4 , , : 3 ",
": , 9 , : ; S & : , , : y B ; , , 3 < 2 > 2 > * G.c 3 , , ; 2 4 ; H e < 3 < 2 -.",
"> 4 , , 9 , G e ; 2 , , d M ; , , > , , : : ; _ C : v ,., : , 9 1 G , > : 1 j -.",
"O.3 > , : : & L & 2 1 & M - , , ; > , , : ; y d.$ ; : O.O.3 2 ; * a 4 , , > 5 3 ",
", 5 X., 5 3 & H ! <.M M p.l ; ; ; 5 O.3 2 : S.O.: , 9 , , > O.O./ y : : > , , ; ",
", > 1 #.$.5 < a H : : : = q.k.= 3 1.y O.* F I ; : 4 , , > : > > c M ; , > , , , ",
", : : %.<., , & G 4 , , ; Z e.b.r., , 9 9 1 w , 7 , , > 2 , , , x C , , , 2 3 2 ",
"3.> #.%.: : : : a - 1 &.L f X : - O.: 9 0 4 o.< , , , , , , , , 6 b : O.C 6.2.O.",
"%./ =., : , 4 : d o.o.* e =.y 2 : 1 : , 9 , * O.: < > 2 > , , , z T y f 1 , : : ",
"o d.1 : , 4 : t O., ; 1 ; , O.B M u.c ; 4 > e a a < 5 3 ; ; 7 , 2 y.$ # : : : , ",
"; c.$ # ; : ,.c , , , 7 , , : t < t Q 5 5 1 5 4 a ) & : : : ; ; * F.n X > 5 5 , ",
"= v.B d O.l u.< , , , , , , , O.2 * i & 3 2 , 9 4 M m * d Q ) Q A y A.t , , : 5 ",
"<.x $ t <.u.l.4 , > , , , , 9 5 3 2 d ; , , 0 0 9 9 - A.~ - < < : ; r L > ; 3 0 ",
"..< : , :   q.6 , , 9 , , 9 , : d l 6., , , 9 9 4 3 W n X ; , , , ; % L 1 : 5 5 ",
"#., , 4 : # Q O.; : # ; > , ; e g g.p.% r e X.@ q y ,., : > , 9 , , : L a # 3 3 ",
"e 2 : 4 : $ | F & - b Z y O.#.* X % c e h d * a U : , 4 , 2 , , , 4 , *.J @ < & ",
"~ 1 : : X e M.P R J.m b B r j B & , 9 j r : : X g B > ; , , 4 8 X : :.o.1 G j & ",
"A.s.] ~ a a a . O F.$ ; , > , 3 B 8 7 M 3 4 4 , + { & ; , , : > y | :.; : 5 %.=.",
"_ 1 < 1 * e Y : $ B.r , , , 4 , 3 <.y 1 , , 7 4 X ~ <., ; ; = p.d * > 4 , 7 , 9 ",
"_ , 4 4 : t } < # i B.l , , , 9 ; & j < : 4 9 9 : ^ t < 1 y s.C ; < : : , , : , ",
"0.: , , ; t  .& B u g Z.O., , > *.=.< 2 , , , , y h T  .U V.b & : , : : , , ; 4 ",
"5.4 , , 4 = u.M O.< : & j y ; r O., : 5 , 4 4 # Q # < $ & ' % # 5 4 , , , , 7 , ",
"%.: : , = ,.d.- : > 2 > < L J 1 , , , ; , 2 , * a.r < : : J L $ 2 , 4 4 4 2 4 2 ",
"O.2 ,.2 < : - J : , 5 > , t ..< > 2 4 , 4 2 : 9.d 3 O.3.< < L & < , : : 4 5 5 2 ",
"%.v z.: , , : J 2 , 3 3 ; : #.L > 5 : 2 , < $ Q t : O.O.< ; X.H 1 2 4 , 4 , 7 7 ",
"; = w.: , , 2 >.2 2 2 O.; : o I s f a o.W T A | t : O.3 < 3 2 7.L : , : 4 , 7 7 ",
", = r.= ; > 2 B : , # A T p D S j o.< y  .. e f : ; = 5.2 2 > : j e : ; ; , : 1 ",
"B C r.= , , 5 d ; < x D.T a.* X : ; 2 3 W . < 2 2 : 3 0.O.4 , , * ' p B & ; , 9 ",
"2 , , M 2 , 2 d c Z O.1 X ) r : > ; 5 < R ~ < , > 5 $.< < 3 < X a D r %.C _ - c ",
"> , , 1 t 3 & ! - < , , : 3 :.: : : , $.e } <.: 2 2 < 4 , > < $ D 3 : , : - * t ",
"7 ; , , , - M : ; , > > ; 5 7.; > , 0 5 X e ) : , , : > , , # b Z.> , , , , * 4 ",
"7 9 , 9 , 2.B : , , , , 4 O.8.2 > , , > o o } 1 , , , , , ; b [ 4 7 , 7 , 9 8 ,.",
"7 9 7 7 3 y > 2 , , > , : < H : > 5 , < 3 > ;.7.> r j l $ 6 n.: : 7 ;   ; , 7 l ",
"y 7 7 - O.: 4 5 , ; : ; > < 8.1 < , 7 4 5 4 : &.r m.| T h.H.Z ; : , , ; 7 , , , "
};
