/* XPM */
static char *c96a2c54e56e4babd72b86cd3be9eeeaYR5xFCPTXd45sVcN[] = {
/* columns rows colors chars-per-pixel */
"40 40 10 1 ",
"  c None",
". c #017DC3",
"X c #027DC3",
"o c #027EC3",
"O c #037EC3",
"+ c #047EC3",
"@ c #047EC4",
"# c #047FC4",
"$ c #057FC4",
"% c #067FC4",
/* pixels */
"                                        ",
"                                        ",
"                                        ",
"                  .%%+                  ",
"               +.......++               ",
"             .............$             ",
"            ................            ",
"           $.................           ",
"          +..................+          ",
"          ..........+.........          ",
"         +.......+    $........         ",
"         .......        .......         ",
"         ......+        +......         ",
"        $......          ......$        ",
"        .......          .......        ",
"        .......          ......+        ",
"        %......          ......+        ",
"         ......+        +......         ",
"         ......+        .......         ",
"         %.......+    %.......$         ",
"          .........+.........O          ",
"          +...................          ",
"           ..................           ",
"           +................$           ",
"            ................            ",
"            +..............%            ",
"             ..............             ",
"              ............              ",
"              $..........$              ",
"               ..........               ",
"                ........                ",
"                O......O                ",
"                 ......                 ",
"                  ....                  ",
"                  $..%                  ",
"                   .$                   ",
"                                        ",
"                                        ",
"                                        ",
"                                        "
};
