/* XPM */
static char *adcf0e4ce53f428db436669be1db2727HaxwE7ZUgr3aHqPA[] = {
/* columns rows colors chars-per-pixel */
"40 40 239 2 ",
"   c #140D0D",
".  c #0D0C12",
"X  c #120E13",
"o  c #160E15",
"O  c #131215",
"+  c #15151B",
"@  c #1A161A",
"#  c #1C191C",
"$  c #1C1616",
"%  c #0C0606",
"&  c #231C1B",
"*  c #2D1E1D",
"=  c #251816",
"-  c #331B18",
";  c #2B211E",
":  c #39241D",
">  c #1C1C21",
",  c #1B1C27",
"<  c #231E22",
"1  c #291B21",
"2  c #1C2124",
"3  c #242124",
"4  c #2E2422",
"5  c #22232C",
"6  c #2E2725",
"7  c #332523",
"8  c #3C2A25",
"9  c #372A28",
"0  c #242632",
"q  c #2B2B39",
"w  c #393434",
"e  c #343030",
"r  c #41291E",
"t  c #432F2A",
"y  c #462E26",
"u  c #45322E",
"i  c #4C352C",
"p  c #4E382E",
"a  c #573A2D",
"s  c #4A3935",
"d  c #523C33",
"f  c #583B35",
"g  c #522F22",
"h  c #6A372F",
"j  c #4C433C",
"k  c #574439",
"l  c #58523C",
"z  c #6B4539",
"x  c #6C4A3D",
"c  c #664438",
"v  c #744B3B",
"b  c #774A39",
"n  c #74543F",
"m  c #6F402D",
"M  c #303546",
"N  c #423F43",
"B  c #4B4542",
"V  c #574944",
"C  c #5C5542",
"Z  c #5D544A",
"A  c #5B5547",
"S  c #424757",
"D  c #674D43",
"F  c #7A4D42",
"G  c #665847",
"H  c #735144",
"J  c #7B5342",
"K  c #7D5A4A",
"L  c #76564C",
"P  c #675751",
"I  c #745A54",
"U  c #69634D",
"Y  c #78664E",
"T  c #6B6453",
"R  c #786A58",
"E  c #5D606A",
"W  c #7C7262",
"Q  c #575662",
"!  c #85473B",
"~  c #86533F",
"^  c #955A3F",
"/  c #8A5442",
"(  c #855C4C",
")  c #885A46",
"_  c #945B45",
"`  c #945C4C",
"'  c #9B5D4D",
"]  c #975748",
"[  c #855F53",
"{  c #985E53",
"}  c #894A42",
"|  c #A65953",
" . c #B45A59",
".. c #8B614D",
"X. c #8C6447",
"o. c #95644C",
"O. c #9A624A",
"+. c #98684B",
"@. c #82665C",
"#. c #886657",
"$. c #9D6452",
"%. c #936A5B",
"&. c #9C6E5C",
"*. c #976753",
"=. c #86735E",
"-. c #98755B",
";. c #987147",
":. c #A4684C",
">. c #A26555",
",. c #A56C54",
"<. c #AC6D5B",
"1. c #AA6A57",
"2. c #B3685A",
"3. c #AA7458",
"4. c #B17354",
"5. c #B3745C",
"6. c #B5785A",
"7. c #BB7C5B",
"8. c #BB705A",
"9. c #BF5F60",
"0. c #986E64",
"q. c #8C7B66",
"w. c #977765",
"e. c #887C72",
"r. c #836F62",
"t. c #B86765",
"y. c #A37463",
"u. c #A87A67",
"i. c #B47460",
"p. c #B47A62",
"a. c #BB7C62",
"s. c #BC7E6A",
"d. c #B7786A",
"f. c #A27F71",
"g. c #C27A5E",
"h. c #C37C63",
"j. c #C6746B",
"k. c #D86A70",
"l. c #C97A75",
"z. c #D67979",
"x. c #C86C66",
"c. c #E37379",
"v. c #98815E",
"b. c #B8815E",
"n. c #9C8769",
"m. c #9D8477",
"M. c #A88A6A",
"N. c #BB8264",
"B. c #B3836C",
"V. c #BA876A",
"C. c #AB8D72",
"Z. c #A88976",
"A. c #BC8474",
"S. c #B28C73",
"D. c #BA8C74",
"F. c #B58777",
"G. c #AC9278",
"H. c #B69876",
"J. c #AD926E",
"K. c #BEA57C",
"L. c #C4835D",
"P. c #CA855F",
"I. c #C58463",
"U. c #CC8965",
"Y. c #CD8B6B",
"T. c #C68769",
"R. c #D28D6D",
"E. c #D4936D",
"W. c #D9966B",
"Q. c #CA8773",
"!. c #D38D72",
"~. c #D58777",
"^. c #CD9B76",
"/. c #C4927B",
"(. c #C9957C",
"). c #CA9778",
"_. c #D59373",
"`. c #DB9474",
"'. c #D9947A",
"]. c #DC9B7B",
"[. c #D69B7A",
"{. c #CC986E",
"}. c #E09A6F",
"|. c #E19C74",
" X c #E29C7B",
".X c #C3A77B",
"XX c #D9A57E",
"oX c #E5A27C",
"OX c #E8A47D",
"+X c #9E8F80",
"@X c #BB9782",
"#X c #B7A48C",
"$X c #BEB8A4",
"%X c #C89883",
"&X c #D19B82",
"*X c #DC9C82",
"=X c #CC908B",
"-X c #EA8687",
";X c #E59E82",
":X c #F38E92",
">X c #F79597",
",X c #F1858A",
"<X c #C7AB84",
"1X c #D9A386",
"2X c #CDB284",
"3X c #D6A796",
"4X c #D6B495",
"5X c #E4A283",
"6X c #EAA484",
"7X c #EBAA86",
"8X c #ECA689",
"9X c #E4AC8A",
"0X c #EDAB8B",
"qX c #E3A984",
"wX c #F2AD8C",
"eX c #F1AB87",
"rX c #EBB18B",
"tX c #F1B18E",
"yX c #EAA896",
"uX c #EAB597",
"iX c #F4B493",
"pX c #F5BA96",
"aX c #F9B996",
"sX c #F3B69A",
"dX c #F5BC9B",
"fX c #FBBD9B",
"gX c #F9B495",
"hX c #F4AD94",
"jX c #D7B9A8",
"kX c #EBB6A5",
"lX c #F4BCA3",
"zX c #F7BAA6",
"xX c #F9C19D",
"cX c #F4C3A3",
"vX c #F9C4A4",
"bX c #F5C3AB",
"nX c #FBC6AC",
"mX c #F3C4B1",
"MX c #D6C2B3",
/* pixels */
"%.;.;.-.-.=.q.r.u 5 @ @ & @ + 1 1 1 1 : y : @ < s u 1 1 # O + + + + + + + @ w e ",
"q.#.X.w.n.m.e.B 5 1 1 0 V I W f.F.@X!.=X(./.B.B.B.y.%.[ [ D 9 & < # + > > > 5 w ",
"T C G W e.e.w 5 0 N m.#XkXkXzXzXzXzXfXfXfXxXxXxXfXfXfXgXsX9X&Xy.#.k 7 & o + > < ",
"Z l j U R A 0 3 N jXzXkXkXkXzXzXfXfXsXgXaXxXaXpXaXfXfXgXgXiXgXgXhX1XF.#.d & + , ",
"A l l Z T w 3 j f.kXkXkXkXyXhXtXiXiXiXgXiXaXpXaXgXhXgXgXhXhX0X0X8X5X*X&X@Xf.u + ",
"U G C T Z q w @.3XkXyXyXyXyX0XrX0X0XrXtXiXiXaXaXgXgXwXwXwXeX8X;X X`.].[.(.%XF.6 ",
"R U C P N u V f.3XyXyXyXyX;X0X9X0X0XwXtXiXiXiXpXgXeX8XeXeX6X X`.R.R._.E.Y././.L ",
"W T G Z N V @.@X1X9X*X;X;X8X0X9X0XrXtXiXtXiXiXiXtXeXeXeX6XoX|.`.E.R.Y.T.T.Q./.%.",
"U U U l s I f.(.^.].*X;X8X8X0XrXrXrXtXpXtXxXxXiXgXtXrXeXeXOXoXoX|.`.R.U.T.h.N.&.",
"l U U l B @.D.^.[.9XyXuXsXsXpXpXaXiXxXxXxXuXxXxXaXpXiXpXtXtX7XOX XE.R.U.I.7.6.*.",
"C Y R B Z f.(.&X%XF.0.I P Z.uXvXxXxXxXcXxXcXcXbXxXpXdXuXpXtXtXeXOXOX`.E.I.7.4.+.",
"Y R W B P F.&X%XI j j s 9 1 w #.3XxXcXxXcXcXbXbXbXcXdXcXxXaXpXpXuX3X).B.V.B.1.O.",
"Y =.=.j I D.&XF.y.B.B.p.3.J y   8 L u.D.1XrXsXlXsX0XtX9XqX[.D.w.G s 9 9 d L &.o.",
";.v.3XI I D.).V.B.6.1.a.Q.(.B.F r : a c ) 6.XX8X6X].N.+.n d :   = 8 i p 9 : c ..",
"v.7.h.A.r.D.(.N.,.*.y.%.%.0.d.,.o.^ b b / 4.R.].Y.4.! a : - g ~ ,.,.O._ +.( n K ",
"H.[.l.N.w./.^.^.N.F f I 9 * : H / ^ :.:.4.R.qXoXI.^ m h z v o.B.-.p.I.:._ O.+.) ",
"#XjX8XT.u.).XXrXqX).u.u.0.( @.d.3.<.N.T.Y.7XxXiX`.:.O.O.^ ( d * = f b z z ~ X.) ",
"jXjXsX(.F..X9XuXuXuXXXV.s.d.i.5.h.!._.{.'.pXvXaX`.4.6.4.5.A.&.J H 0.J a z ,.4.X.",
"$XMXbX(.d.1XrXpXxXxXpXrX7X1X[.*X1X8X6X`.5XdXnXiXR.7.L.Y.T.a.i.i.$.*._ ;.b.I.b.;.",
"#X#XuX/.u.1XqXiXaXaXpXiXwX7X8X0XtXtX X X0XlXbXhXE.I.L.Y._.R.T.!.I.a.I.W.W.{.V.+.",
"n.K.4XF.3.).qXtXpXpXpXpXhXgXsXgXtX6X_.;X8XzXbX0XE.I.L.I._. X`.|.oXoXOXOXXXW.N.X.",
"Z.@X@XR %.M.[.7XiXxXlXlXlXdXdXiXeX`.`.8XzXzXmXwX`.g.4.L.`. X X|.}.|.oX}.W.P.3.K ",
"G.@X@XV #.3.T.].8XiXdXdXiXpXgXwX6X;XhXzXzXmXzXwX;X`.8.h. X6X8XOX|.}.W.W.U.b.+.n ",
"M.S.G.D x *.3.N.`.6X0XwXgXhXwX8XwXzXnXzXzXmXmX0X8X8X8X X X6XOX X}.}.}.W.L.4.) G ",
"Z.C.J.j u x ..+.6.U.`. XOX6XeX6X8.>.A.*XsXvXzXhX X X X!.|. X}.}.}.}.W.P.4.^ c C ",
"C.H.w.; 9 d c ..+.6.P.W.6X7X8X8XQ.1.' ] s.'.].Q.' ! ^ |  X X}.}.W.U.L.:.~ b i =.",
"J.H.w.; & k d d J ,.7.!. X5X;X;X;X'.a.$.' ' ] ! ' 2.2.R. X|.R.U.P.7.:.b b c k C.",
"J.H.Y $ & d k k n *.6.<.y.*.&.<.<.>.{ $.' T.1./ ' g.W.|.}.`.I.g.4.) m b n : l J.",
"K.K.n.; o 9 d d x o.%.D L 0.@Xl.l.l.~.~.l.~.j.2.' ' $.5.i.N.6.>.~ a c z p O j C.",
"K..XK.G . & u u v [ ( c [ { } |  .2.t.j.z.z.l.g.j.t.<.' } H J / f y y t = 9 q.J.",
"K..X.XM.# . 4 t K *.H { t.d.d.t.9.x.9. . . .| | t.2.| ' ) i d k : & 7 & O U XXH.",
".X.X2X2X=.+ o & x ( D ( d.y.d.z.-X:X:X,Xc.k.k.k.9.| ! b c p d 8 = & $ X 4 n.J.v.",
"K..X2X2XH.G & $ u D V H <.<.` $.l.,X>X>X>X>X>X:X-Xl.t.{ J f y $ $ O . $ U J.M.M.",
"C.K.#XR ..F.L $ ; u u p ` i.<.` ` t.l.z.c.:X:X-Xx.| F b v p = O O . $ j n.n.M.J.",
"m.m.R % Y ).B.c O # 9 k ( i.s.s.5.] ! h h } } ! h h h H y 1 $ . X 8 D 9 B W n.n.",
"E Q e   M.^.{.p.8 + & u H y.~.'.!.U.<.! ` ` ] / / } D 7 & &   = c ( t > 0 w v.n.",
"M q 2 3 J.XX.X{.Y 3 @ 4 d K u.T.!.h.h.4.8.h.7.6.<.c 7 @ O o t ( o.8 . 2 0 5 e P ",
"M 0 5 5 w.XXXXXXA.k 6 & 6 u H { >.1.2.>.1.1.' ) H t @ + $ d ..c # . + 2 2 0 0 < ",
"q 0 M 0 k ).1XXXXX#.s 6 & 1 9 u i z v F F c i 8 4 & # > w s & o > > + > 5 0 0 0 ",
"q 0 S S 0 D V.XX^.B.K f 7 & & # < & & 4 4 4 3 # & $ & > @ O + + > > + , 5 0 0 5 "
};
