/* XPM */
static char *_4c6ae6e623a4482da72c6a5b327999eHNPIJQ2rNKkPFppj[] = {
/* columns rows colors chars-per-pixel */
"40 40 233 2 ",
"   c #1C1010",
".  c #1F120A",
"X  c #2C1C0C",
"o  c #251A08",
"O  c #291B15",
"+  c #2B1E1A",
"@  c #251916",
"#  c #301D0C",
"$  c #2E2114",
"%  c #2C221C",
"&  c #332414",
"*  c #3C2C15",
"=  c #32231B",
"-  c #3B2C1C",
";  c #382717",
":  c #3D301D",
">  c #37290F",
",  c #2F2222",
"<  c #312623",
"1  c #352A22",
"2  c #3B2D22",
"3  c #372B29",
"4  c #3D322B",
"5  c #3D3424",
"6  c #3E3232",
"7  c #442C1B",
"8  c #45331D",
"9  c #48341E",
"0  c #4B3A1E",
"q  c #403017",
"w  c #443424",
"e  c #4A3625",
"r  c #463924",
"t  c #4C3A24",
"y  c #42352A",
"u  c #45392B",
"i  c #4C3C2B",
"p  c #48362A",
"a  c #513E2B",
"s  c #523E25",
"d  c #423633",
"f  c #4C3E34",
"g  c #463937",
"h  c #513F35",
"j  c #4C4027",
"k  c #534126",
"l  c #54442C",
"z  c #5A452D",
"x  c #5A492E",
"c  c #55492F",
"v  c #4E4233",
"b  c #4F4339",
"n  c #534433",
"m  c #594733",
"M  c #5B4A33",
"N  c #53453B",
"B  c #54493C",
"V  c #5B4B3B",
"C  c #554935",
"Z  c #5F503B",
"A  c #634E33",
"S  c #624E3D",
"D  c #645235",
"F  c #64533C",
"G  c #69543B",
"H  c #6D593C",
"J  c #685638",
"K  c #755E3F",
"L  c #75623D",
"P  c #554B43",
"I  c #5C4E44",
"U  c #5D5144",
"Y  c #5C5449",
"T  c #4D4342",
"R  c #614F43",
"E  c #635443",
"W  c #675845",
"Q  c #6B5A43",
"!  c #645649",
"~  c #695749",
"^  c #665A4C",
"/  c #6C5C4B",
"(  c #6A5543",
")  c #715D44",
"_  c #725E4C",
"`  c #785F4B",
"'  c #6A5C53",
"]  c #6D614D",
"[  c #736246",
"{  c #74634C",
"}  c #7A664C",
"|  c #77684A",
" . c #7D6A4B",
".. c #796546",
"X. c #756353",
"o. c #786656",
"O. c #766855",
"+. c #7C6B53",
"@. c #7D6B5B",
"#. c #75685B",
"$. c #7D715B",
"%. c #6D6359",
"&. c #7A6E61",
"*. c #7E7262",
"=. c #826D4E",
"-. c #84714E",
";. c #836D52",
":. c #816D5B",
">. c #857254",
",. c #8A7654",
"<. c #84725C",
"1. c #8B765C",
"2. c #8B795E",
"3. c #8C7856",
"4. c #927B5C",
"5. c #927C57",
"6. c #856E60",
"7. c #847362",
"8. c #8A7663",
"9. c #867965",
"0. c #8C7B64",
"q. c #8D7D6B",
"w. c #86776A",
"e. c #927D63",
"r. c #927D6A",
"t. c #8E7C72",
"y. c #937E73",
"u. c #94825C",
"i. c #8F826C",
"p. c #8F8165",
"a. c #948265",
"s. c #9B8465",
"d. c #94836A",
"f. c #9B866B",
"g. c #9E8B6C",
"h. c #96896E",
"j. c #8D8178",
"k. c #958473",
"l. c #998574",
"z. c #9C8B73",
"x. c #9D8C7A",
"c. c #978579",
"v. c #A28E65",
"b. c #A28D6D",
"n. c #A8946D",
"m. c #A38D72",
"M. c #A28D7C",
"N. c #A59274",
"B. c #AA9474",
"V. c #A4927B",
"C. c #AC967A",
"Z. c #AE9A7B",
"A. c #A7997D",
"S. c #B39E7C",
"D. c #B39E73",
"F. c #BAA57E",
"G. c #B7A37F",
"H. c #9B8A80",
"J. c #A08F85",
"K. c #A39383",
"L. c #AA9583",
"P. c #AB9B83",
"I. c #A9998B",
"U. c #B29E83",
"Y. c #B19E8D",
"T. c #B5A285",
"R. c #BAA585",
"E. c #B4A48C",
"W. c #BBA68A",
"Q. c #BDAB8B",
"!. c #BAA988",
"~. c #BAA695",
"^. c #BDAC93",
"/. c #BEAD99",
"(. c #B6A691",
"). c #B6A88E",
"_. c #BEACA0",
"`. c #C3AD8C",
"'. c #C1AA86",
"]. c #C5B18E",
"[. c #C9B48C",
"{. c #CEB98E",
"}. c #C2AE93",
"|. c #C3AE9C",
" X c #C5B293",
".X c #CAB696",
"XX c #CDBA97",
"oX c #C5B59A",
"OX c #CBB69B",
"+X c #CBBA9C",
"@X c #C7B99E",
"#X c #D2BD9C",
"$X c #D1B996",
"%X c #CDBCA1",
"&X c #C8B6A3",
"*X c #D3BEA2",
"=X c #D3BEAB",
"-X c #CFC09F",
";X c #D4C09F",
":X c #D4C2A4",
">X c #DAC5A4",
",X c #DDC9A6",
"<X c #D4C4AA",
"1X c #DAC6AA",
"2X c #DCCAAB",
"3X c #D6C8AD",
"4X c #DFD0AE",
"5X c #D5C4B2",
"6X c #DCCCB5",
"7X c #DFD3B8",
"8X c #CFC3AB",
"9X c #E3CDAC",
"0X c #E6D2AB",
"qX c #E2CDB0",
"wX c #E4D3B4",
"eX c #ECD4B2",
"rX c #E3D3BA",
"tX c #EDDCBC",
"yX c #E8D8B9",
"uX c #F2DDBD",
"iX c #F0D8B6",
"pX c #F9E4BF",
"aX c #EADAC4",
"sX c #F3DCCA",
"dX c #F3E2C3",
"fX c #F5E6C9",
"gX c #F9EAC8",
"hX c #F9EBD3",
"jX c #FFF2D3",
"kX c #FFF4DA",
"lX c #FFF8DB",
"zX c #EFE5CC",
"xX c #FFFDE3",
/* pixels */
"V.:.<.+.f.:X.X}.-X$XR.5.-.,.;.1.X.:./ n w & & w.k.8.y.:.8.:.7 7 q.S & o.P.d.k.z.",
"<Xl.{ D 1.}..X:X-X,XG.R.U.K s.0.8.q.~ p X * 0.5Xx.q.8.( r.y.6.a 8 i * M X.d.&XL.",
"X.M 8 : c | s. XtX7XXXQ. Xb.C.z.z.k.i W O.* * { +.:.Q :.;.y.L.e.@.V p w n R ~ 7.",
": r 8 j c j M +.).A.T.z.U.U.a.8.E.X.q 0.z.Q Q F s s G 1.y.L.W.e.@.7.O.V X 2 ~ i ",
"*.&.] #.k.9.] B 5 r v $.$.O.*.i.k.V & W 0.!.+Xb.B.B.5.=.,.'.$XW.V.q.t.U - % & ' ",
"' Y b P #.&.Y 4 5 4 1 ] b 4 b Y C r r p.@X<XP.2.r.'.C.e.=.F.$X}.A.M.i.%.w 2 ! I ",
"< < 3 < 4 v 4 3 3 % < 6 6 P 6 < - $ W 5XfX6X^.T.S.S.U.b.5.K y.=.Q 0.r.F p p ; & ",
", , < @ @ 3 3 = g , @   < T 6 % % u * 9.6XrXOX1X9X#X'.'.5.=.[.b.{ ;.) Q X.+./ e ",
"Y b = f N d I ' d 3 y @ % < % = y y f B Y.~.U.1.R.eXiX#XK =.r.$X`.XXZ.4.4.1.1.1.",
"i.$.+.X.<.$.q.X.I n N f v = $ @ 1 I N i K.1.Q G 1.U.*X`.K A U.R.R.5.{.XXm.m.1.4.",
" .3.g.s.f.h.e.c p.2.0.r.p.] v o $ w.%.- k.} S H ;.=.4.$Xe.s ;..X`.'.9X,X#XXXs.;.",
"n.v.n.v.-.L  .N.<.0.T.&X-X).i.c % t.w.- q.0.m.C.;.=.r.S.OX1.;.C.S.,XG.3.f.S.m.M.",
"G.{.F.L ,.n.Q.%Xp.M F +.V.E.h.] y %.*.f 7.l..X#Xm.B.s.Z.}.*X:.=.u.+.D 0 k +.+.0.",
"v.G.G.s.eX>X:XOX{ M @.+.] Z Y p.B ! w.M Q s.W.U.m.4.4.}.qX=XU.` 2.$.} 9.+.8.q.$.",
"5.!.`.U.*X(.L.J.U B ^ I v 1 b #.B U *.l m e.m.m.v.e.C.9XW.T.8.z Z q.@.q._ ~ *.w.",
">.h.+.q.7.@.E I N f d y b 4 u 1 B v W w M e.s. Xm.;.N.m.;.) H 0.W n b V w B 5 v ",
": Z v B f N N 2 % y ! ! W S M z r p l C : U k.K.Y v U i S s.%XOX}.d.8.O.U 1 1 4 ",
"5 n 5 B B y + . 1 ^ c.r.<.{ ;.8.X./ ] ! C C &.P P 5 2 ; e r e.tXqXqX3XP.^ 1 = % ",
"F ] +.q.X.U P 2 - o.x.x.^.}.W.}.7.+.E / O.v 4 % 1 N ^ ^ M z e.}.uXwXrXqX9.- 5 B ",
"Q p.0.0.q.6.o._ a V { r.oX9X9X'.l.o./ @.v : = $ %.j.J.K.J.Y.*X*XC.` ) ( - $ v ^ ",
"v.4.B..X}.Y.L.r.Q 9 S e.N.$XdX`.E.L.7.W E / r u I I.H.@.M.%XU.;.a A 8.` & - E i.",
"B.F.'.`.*X*X}.U.1.A 7 A B.`.*X X|.r.<.{ O.O.V $ P R I P X.{ A A 1.m.|.:.e R q.L.",
"[.'.$XS.Z.$XeX}.U.s.0 A *X>X X!.W.M.0.9.0.Z C w 2 V c.7.@.;.} ` y.1XsX8.m R J.M.",
"[.[.#X`.$X*X&XV.r.=.s ` #X*X XC.V.e.M [ Q H / : 7 &._.@._ o.=.a.=XaXqXx.o.m L.~.",
"5.4.#X>X#XT.2.M M l M r [ A.f.2.F ) 0.[ { P.0._ V V k.B <.~.}.2X@Xp.W / X.p X.q.",
"J H >.H +.+.M } $.| +. .x k x t 0 H 4.H oX%XOXz._ p h K.qX|.}.oX<.3.F r X - i X.",
";.A G Q | +.<.A.P.x.z.h.a.p.[ D A G x ..1X2XaXV.V a a S m 9 a Q x > > : r V C n ",
") G m _ $.Z W 9.$.T.A.!.@X+X-XR.f.b.1.2X9XXX*Xm.S o.6.# * F k 0 0 | p.).|.{ V ~ ",
"{ o.} @.{ Z G ] { +.^. XW.>X;X9X=.-.>.>XiX,XqX.X} r.:.a ~.^.P.>.a.Q..XrXN.8.<.| ",
"~ k.7.E q.x.Z [ +.m.Q.+X#X0XiX#XR.R. X>XS.B.`.^.e.M.8.S 6XrXdXrX].XX].T.Q.:XT.a.",
"o.X.@._ 8./.<.Q } m.`.$XeXpXeX0X`.`.`.,Xn.U.R.Z.e.r.:.a (.kXhXjXpX0XgX>X#X>XpX:X",
":./ 6.q.<.P.V.{ _ K =..X0X9X0X].Z.#X X#X#X`.R.|.>.` a t V.xXfXtXiXpXdXuXXX}.-XT.",
"e.G S ) M.l.X./ 6.8.8.+XdX XXXXX&X7X6XzX-X@X+XC.Q e e U.p.gXjXgXwXtXjXlXzX7X/./.",
"L.e.G ) X.l.:.f ~ @.x.7X4X-X4X@X7X7X8X(.8X3X8.l 9 8 m H J ^.gXyX,X3XlXlXxXzXxXyX",
"e.s.o.) +.<.p.[ = ~ 8.z.+. .p.z.).i.$.F | O.i k e 0.8.<.{ [ 4X-X-X3XyXlXlXzX8X7X",
"S.S.B.e.h.[ F J 7 z m i j M M W ] c Z +.[ c z { K.~.~.|.@Xp.[ N.<XtXzXxXlXlXxX^.",
"gX9X[.].D.n.-. .0.F G n w w w ; u i w i S 0.q.z.Y.=XaX=XY.=X@XL >XlXrX-XzXxX/.i.",
",.#X;X!.Q.N.-.-X*XE.U.x.7.I h p - - p i E oXE.l.|.=X:.X.x.L.^.D 3.T.+.[ r +.V.A.",
"..| [.yXtX-XD.u.`.!.U.U.Y.c.o.' ! C ! ~ W d.8.] ~ R p O ; ( a.z.S.a.p.l Z V.@Xp.",
"g. .-.,XgX0X[.F.-X`.m.f.o.6.y.t.t.q.E / <.S p 8 I ~ X.X.i S p.oXrX^.[ 0 d.T.N.z."
};
