/* XPM */
static char *_ab1a162094e49f2daed8eb03d4944e3x2OyWcsB6IkFsymu[] = {
/* columns rows colors chars-per-pixel */
"40 40 201 2 ",
"   c #000000",
".  c #010B03",
"X  c #0B0C0B",
"o  c #011303",
"O  c #011D05",
"+  c #151515",
"@  c #012405",
"#  c #012B06",
"$  c #08250A",
"%  c #013507",
"&  c #013E07",
"*  c #013408",
"=  c #013B08",
"-  c #152015",
";  c #193919",
":  c #2C2C2C",
">  c #252525",
",  c #2E312E",
"<  c #3B3B3B",
"1  c #313131",
"2  c #01430A",
"3  c #014C0A",
"4  c #08450C",
"5  c #01540C",
"6  c #015C0D",
"7  c #0E4B12",
"8  c #194D1D",
"9  c #015F12",
"0  c #195A1D",
"q  c #01640D",
"w  c #016D0E",
"e  c #01740E",
"r  c #016610",
"t  c #016D11",
"y  c #0A6C15",
"u  c #16611D",
"i  c #017411",
"p  c #017B12",
"a  c #1F5D22",
"s  c #264628",
"d  c #2E542F",
"f  c #364A36",
"g  c #345336",
"h  c #1C7A28",
"j  c #207C28",
"k  c #316235",
"l  c #2A7D34",
"z  c #327937",
"x  c #40473F",
"c  c #454545",
"v  c #424A42",
"b  c #4B4B4B",
"n  c #455F47",
"m  c #545554",
"M  c #5C5C5C",
"N  c #535A52",
"B  c #556C55",
"V  c #537555",
"C  c #597B58",
"Z  c #646564",
"A  c #6B6C6B",
"S  c #676867",
"D  c #7A7A7A",
"F  c #757875",
"G  c #01800F",
"H  c #028414",
"J  c #0B8316",
"K  c #018C15",
"L  c #078A19",
"P  c #0D8B1B",
"I  c #018518",
"U  c #0A911F",
"Y  c #0C9D23",
"T  c #129A26",
"R  c #169E29",
"E  c #1B9B2A",
"W  c #159424",
"Q  c #198323",
"!  c #219D2F",
"~  c #309A3B",
"^  c #259736",
"/  c #04A423",
"(  c #17A52B",
")  c #1FAE34",
"_  c #1EA632",
"`  c #23A634",
"'  c #2DAB3B",
"]  c #27AE3B",
"[  c #2AB23E",
"{  c #20B338",
"}  c #399241",
"|  c #3FA54A",
" . c #2DBB44",
".. c #33BB47",
"X. c #3ABE4C",
"o. c #36B747",
"O. c #4C8250",
"+. c #5A875F",
"@. c #55905B",
"#. c #70936F",
"$. c #7E9A7F",
"%. c #5DB46A",
"&. c #6EBF75",
"*. c #33CC4E",
"=. c #3AC24F",
"-. c #3CC452",
";. c #42CC57",
":. c #46C757",
">. c #51CE5F",
",. c #4AD25E",
"<. c #46D159",
"1. c #53C361",
"2. c #4CD461",
"3. c #55D765",
"4. c #53DA66",
"5. c #56DC69",
"6. c #5BDC6B",
"7. c #58D667",
"8. c #5CE36F",
"9. c #51E768",
"0. c #5BE872",
"q. c #5EFB7D",
"w. c #61E16F",
"e. c #67EB7A",
"r. c #6BED7B",
"t. c #66E777",
"y. c #6AF27E",
"u. c #65FB7F",
"i. c #65F47D",
"p. c #78CD83",
"a. c #6EEC80",
"s. c #6DF481",
"d. c #6AFB83",
"f. c #73F585",
"g. c #73F986",
"h. c #75FD8A",
"j. c #7AFD8C",
"k. c #7DFF91",
"l. c #76FD91",
"z. c #79ED8A",
"x. c #828382",
"c. c #8D8D8D",
"v. c #838F81",
"b. c #9A9C9A",
"n. c #939393",
"m. c #A1A1A1",
"M. c #ACACAC",
"N. c #B3B4B3",
"B. c #BDBDBD",
"V. c #B5BFB5",
"C. c #9BC79F",
"Z. c #A7DC9A",
"A. c #84E88F",
"S. c #82FF94",
"D. c #8AFF9D",
"F. c #89E394",
"G. c #BAC9BA",
"H. c #AFD6B0",
"J. c #A3D7A6",
"K. c #97E9A2",
"L. c #93FFA4",
"P. c #9CFFAB",
"I. c #99F8A8",
"U. c #A8E9AE",
"Y. c #A2F9AC",
"T. c #AFE5B3",
"R. c #B9EBBF",
"E. c #A9FFB5",
"W. c #AFFFBA",
"Q. c #A4FFB1",
"!. c #B5FFBE",
"~. c #B3F4BA",
"^. c #B8FFC2",
"/. c #C4C4C4",
"(. c #C6C9C5",
"). c #CACACA",
"_. c #C5D5C6",
"`. c #D5D5D5",
"'. c #DCDCDC",
"]. c #C0E6C3",
"[. c #C4FFCD",
"{. c #CAFFCD",
"}. c #D3E6D3",
"|. c #CDFFD3",
" X c #CFFFD8",
".X c #D0FFD7",
"XX c #D3FFDB",
"oX c #D9FFDE",
"OX c #DEFFE3",
"+X c #E3E3E3",
"@X c #EAEBEA",
"#X c #E2ECE1",
"$X c #E2FEE6",
"%X c #EEF4EE",
"&X c #E5FFE9",
"*X c #EBFFEE",
"=X c #EFFEF1",
"-X c #F3F4F3",
";X c #F2FDF3",
":X c #FEFFFE",
">X c #FDFEFD",
/* pixels */
"                                                                                ",
"                                                                                ",
"                                                                                ",
"                                                                                ",
"    O % % % @                                                                   ",
"  . # & & & # .                                                                 ",
"$ $ e ! P J q # @ # # .                                                         ",
"* = ! :.' ! L = % % % o                                                         ",
"3 6 e J W ` W w u a 0 % O O O o                                                 ",
"e p & . p o.| V Z A Z s # & & #                                                 ",
"w p w q K ~ C A A A A x 7 5 3 & o o                                             ",
"w p ' ,.! 0 m D D D D A B h p w = % .                                           ",
"q e ' <.~ x m D D D D A A z G e 3 2 .                                           ",
". o 6 p @.N.c.b b Z S n.M.#.Q ( 2.>.5 # o                                       ",
"  . 3 q +.B.n.c c M Z n.N.v.z ) 6.7.6 % @                                       ",
"    O @ s Z D m.b.m b A x.A g P E E 3 % 5 5 #                                   ",
"        $ 1 S '.`.b < m Z m g e i e 2 = 6 e 2                                   ",
"        @ > < x.c.x.x.S m b 8 6 6 6 & = ! w.P & #                               ",
"            + < c ).'.A 1 ; @ @ # # # = w.>X6.5 5                               ",
"            + v b m.M.D B j i i w q 2 3 w.>Xr.` P # @                           ",
"            + c b c c b.U.e.9.7.:.=.p w t.>XoXOXg.p w o                         ",
"            - m m b b b.T.t.9.7.:.=.L G r.>XOX>XS.H e o                         ",
"        % 6 O.'.+X+X+Xx.v h I p p L S.!..X*X!.D.w.H e o                         ",
"        2 q | $X-X>X-XD 1 g y t w p !.=X$X*XW.j.5.H i o                         ",
"        & r ` U.'.-X-X).M.N.C.r.0.r.|.&X$X*X!.j.5.H e o                         ",
"        % 6 ( h.H.@X-X:X:X:X:X:X:X:X&X$X$X*XE.g.3.H i o                         ",
"    @ % i o...*.1.^.+X'.'.@X-X-XOXOX$X$X$X&X[.!.r.I i o                         ",
"  . 5 i X.L.3.q t F._././.'.-X-X-X*X$X$X$X$X$X:XS.I y o                         ",
"  . 5 t -.W.e.T T 4.p.V.).`.@X@X@X@X$X$X$X$X$X:XD.p d X                         ",
"  . 5 r ,.;X[.f.a.K p &.)./.(./.).).@X*X&X&XOX>XS.k f X                         ",
"  . 5 t 2.:X{.k.f.L p ,.K.G./././.(.@X-X-X&XOX:XT.N b X                         ",
"    5 t 2.:X|.g.g.e.t.] L Q n F /.).).).).).'.-X@X'.`.m < c c >                 ",
"  . 5 r ,.=X{.h.h.h.h.` 9 i r V /.(././././.'.-X-X>X%XZ c b b :                 ",
"    O * p =.4.W.^.h.g.4.;.{ r ^ J.)././.'.+X@X-X-X-X@XB.N.m.b.Z : : : 4 .       ",
"        # 2 _ OX=Xh.d.k.Q.-.3 T l.I.H.G.@X>X-X-X-X-X-X>X:X'.).n.< < f r .       ",
"        = 9  .OX$XE.Q.k.h.4.]  .*.-.z.K.R.}.#X-X-X-X-X-X-X+X'.B.c.$.%.-.3 * * % ",
"        2 r  .=X:X=X&XL.s.h.D.5.r t q.D.h.A.~.;X%X;X-X-X-X-X-X=X=X;X;X&XY 6 t t ",
"        * 5 R k.P.OX&XE.k.k.S.8.T T 3.8.i.d.L.|.|.{.|.OX$X$X&X$X=X&X=X&X..R R / ",
"          . * p U ^.*XOX$XE.h.g.d.r.Y p ,.S.h.h.h.h.l.XX&X$X$X$X$X$X$XOXXX|.D.d.",
"            @ r I Q.XX XOXQ.a.d.f.s.I t ;.j.s.y.d.q.q.[.XX X X X|. X X XOXOXL.Z."
};
