/* XPM */
static char *ac90b5186aa94f139bf00e0ddef8b0faGuJFOAfNZabfrgF8[] = {
/* columns rows colors chars-per-pixel */
"40 40 140 2 ",
"   c #1B1F34",
".  c #1D2237",
"X  c #232737",
"o  c #232639",
"O  c #25293B",
"+  c #2A2D3D",
"@  c #2E303F",
"#  c #32323F",
"$  c #2C2F40",
"%  c #2E3041",
"&  c #333542",
"*  c #383741",
"=  c #373844",
"-  c #3B3B45",
";  c #3D3D48",
":  c #413E46",
">  c #403F49",
",  c #434047",
"<  c #44434A",
"1  c #49464C",
"2  c #4D4A4E",
"3  c #514D4E",
"4  c #4D4B50",
"5  c #524E51",
"6  c #565152",
"7  c #5B5553",
"8  c #5E5855",
"9  c #595658",
"0  c #5E5B5A",
"q  c #635C56",
"w  c #695F57",
"e  c #645D59",
"r  c #6A6057",
"t  c #66615C",
"y  c #6C635A",
"u  c #6F685F",
"i  c #706557",
"p  c #71665A",
"a  c #75695C",
"s  c #7A6E5D",
"d  c #7E715E",
"f  c #6F6A64",
"g  c #756D62",
"h  c #7A6E61",
"j  c #7C7163",
"k  c #7D7569",
"l  c #81725F",
"z  c #837562",
"x  c #887763",
"c  c #867963",
"v  c #8B7C64",
"b  c #817769",
"n  c #847A6B",
"m  c #8B7E6A",
"M  c #907F65",
"N  c #8F8167",
"B  c #8E816B",
"V  c #908166",
"C  c #94846B",
"Z  c #97886E",
"A  c #998A6F",
"S  c #99896F",
"D  c #9A896E",
"F  c #8F8370",
"G  c #8F8470",
"H  c #8D8372",
"J  c #8E887A",
"K  c #908370",
"L  c #908572",
"P  c #938671",
"I  c #928877",
"U  c #948975",
"Y  c #978B75",
"T  c #968A76",
"R  c #968A74",
"E  c #988870",
"W  c #9A8A71",
"Q  c #9A8B72",
"!  c #9B8C73",
"~  c #9D8D71",
"^  c #9C8C72",
"/  c #9B8B74",
"(  c #9A8C74",
")  c #9B8C75",
"_  c #9F8E74",
"`  c #9B8C73",
"'  c #938A7D",
"]  c #9A8F79",
"[  c #9F9076",
"{  c #9E9078",
"}  c #9F937C",
"|  c #9E917A",
" . c #A18F74",
".. c #A18F75",
"X. c #A19176",
"o. c #A29176",
"O. c #A2957A",
"+. c #A5967B",
"@. c #A0947C",
"#. c #A3967C",
"$. c #A3957B",
"%. c #A9977A",
"&. c #A6997F",
"*. c #A6997D",
"=. c #A8997C",
"-. c #A9997C",
";. c #A99A7D",
":. c #A8997E",
">. c #A99B7E",
",. c #A89B7F",
"<. c #AA9B7F",
"1. c #AA9B7D",
"2. c #9F9580",
"3. c #A59980",
"4. c #A79B82",
"5. c #AC9F83",
"6. c #AD9F83",
"7. c #AE9E82",
"8. c #AC9F84",
"9. c #AA9D82",
"0. c #AEA082",
"q. c #AFA183",
"w. c #ADA084",
"e. c #AFA285",
"r. c #ADA186",
"t. c #ADA286",
"y. c #AEA287",
"u. c #ADA185",
"i. c #AEA38A",
"p. c #B2A485",
"a. c #B2A588",
"s. c #B0A58A",
"d. c #B0A48F",
"f. c #B1A68B",
"g. c #B5AA8E",
"h. c #AFA790",
"j. c #B5AA91",
"k. c #B3A992",
"l. c #BAAE91",
"z. c #BBB197",
/* pixels */
"C z z s ; z V x s 2 < N v = d l - t >.Z C m v l 6 & r p > r a q 4 & < - 6 ; > t.",
"V N N y @ < 8 3 < = s c 2 @ 2 7 6 t.Q Z C v v d 1 < Q C r - 1 6 > 7 %./ Z i 4 O.",
"c i 7 : 1 6 1 * + + < ; 6 Y y X L 8.D Q M c v i @ u *.v s 9 - & o 3 *.~ V j < j ",
"3 6 g ' k.0.m r q * 2 C e.} m 2 g ;./ ( E M s 1 & } ( v e 6 = - p 6 - 6 h q * 2 ",
"#.s.z.i.I y 4 4 7 5 [ <.R t w r * B  .X.D j 6 $ 7 a.B z 9 < , Q *.7.G r ; + & _ ",
"t.i.L e 2 1 2 4 - y <.B e 8 i y - & 8 q 2 < = X n 0.B s 4 ; m t.*.} C B 1 - - 5 ",
"8 g 2 > ; > < < # B D 7 7 8 e 6 O O * 2 q e 1 O g q.v r ; > 0.&.c r 5 , g >.D e ",
"O O - > 2 1 < & , ~ a 8 r 7 4 ; e x Z o.;.+.D y ; n s , + X 7 q 6 - - b g.| M s ",
"* g X.*.O.D D q + , * < 2 2 & p %.[ [ } [ N u 8 6 * - 7 j B k 2 $ 2 v s.9.M v w ",
"7 } 4.Z V V v 7 , c j y 7 @ * ` O.D } O.V a 6 6 7 1 z >.p.f.+.d = n 7.8.` m l w ",
"y 9.Q C C m x < p 1.[  .o.s 1 X.` X.>.Q l 7 7 5 > 2 [ w.i.Z d r < m 8.9.E x x q ",
"y X.C C N V a - B C C C X.t , [ C *.[ c 0 6 5 < - , >.i.| d 7 2 < l 3.@.C b x 6 ",
"4 Q A C v p 1 @ B Z C [ Z < & m +.#.C y 5 6 3 < O O y [ B 8 1 2 2 - h / C v z 2 ",
"+ g N l 8 4 + O x Q C o.g 2 ; * m p.M 8 3 0 1 # 1 2 % p j 1 < 6 *   > C v z 6 > ",
"2 5 1 , > + t 0 q C z z 2 = & O # w a 5 2 : 6 C =.m 7 2 a 2 1 = < n b w 5 2 - & ",
"+.=.m < . 8 =.[ 2 r 8 - < y y c L b 2 $ 3 t L +.p 2 5 1 ; 2 & t $. .$.b $ 2 p C ",
"*.*.D p & C M M q # # 7 [ A A 0.s.-.l * T l.i.m 6 2 3 6 < o w ;.X.C m q 6 o.$.=.",
"$./ M p = b m i , & x +.A [ i.h.@.m s 2 / i.} a 2 2 4 7 * 1 =.Q V v l , b O.@.+.",
"` C m q - > 6 - @ m u.L &.h.h.[ l l p 2 / i.M 7 < 3 9 7 + b ~ N x x w ; X.X.@.@.",
"D V h 5 > 1 * X 8 e.I } h.4.D l l w q , J q.p 3 3 7 y - 3 o.C x z e < 9 <.D ~ ~ ",
"C v w - 7 7.n # Z 4.T k.&.C d q 7 7 5 > 0 _ 1 * , < ; O g [ N l q < $ 4 ` C Q D ",
"v p ; 6 *.#.m 7 9.} } [ c a 2 1 3 3 3 < o 1 q y d m C 5 - a p 5 & & & + b D C C ",
"h < 1 $.*.D 8 r p.O.Z d r 2 1 4 6 2 5 # < z C ~ D >.[ Z - O # ; y m V 3 3 M x x ",
"> - ~ %.Q i 2 y t.C d e 4 1 1 6 6 3 1 : v C C ` 4.0.u.&.3 X < X.p.D V C 3 7 z p ",
"X b ;.Z w 6 : y o.z s 7 2 1 2 4 9 5 * j Z / X.*.i.u.t.C 4 + g *.Q C C z a @ * - ",
"3 X.D y 5 5 - p [ d 8 2 - > < 6 1 = * B Q *.u.t.>.| m 8 1 & L | E D v i w * X + ",
"y D s 5 q 5 + 7 C s 9 1 > ; 4 < - L p j ~ } [ Q Z s 7 < < ; R +.D l y y y $ X O ",
"w x 6 6 1 - * & r y 4 4 4 4 < - [ %.z 7 ` C V M s 6 5 < 6 ; C O.b 7 q p 2 = h 6 ",
"2 t < 5 g H m w 2 1 1 1 5 2 @ Y ;.N d > j X.v l 7 6 1 5 6 = m / 7 6 q 6 - v o.x ",
"# > p [ 9._ C x y 6 < > > 2 5 y B x 7 @ ; p l e 6 5 2 5 > o 6 B 4 7 6 = h X.C s ",
"- a o.9.X.D M v r 2 < X 6 [ C 7 > 2 < : # # 4 2 4 5 2 ; # 6 8 5 6 6 @ 3 [ Q V a ",
"3 Q 4.9.[ C M v 9 < > 5 <.[ N j - y +.} } a 6 - = 1 < & m -.o.h 4 * : b *.Q v s ",
"e +.9.4.~ C m s 1 2 < n t.C N y > 4.h.4.( V V i 1 & + m <.C V D 3 # s } >.V v d ",
"p ;.*.*.Z V V 5 1 6 - k >.C C 5 0 k.3./ m M x 6 9 * t ~ v v m V 3 7 ( 7.o.l m r ",
"q  .#.} ~ C r ; < < 1 8 D V i # n 8.D N C D y < * + z m V V V w & y 4.i.C m x 8 ",
", l C m b q 1 8 g H 4.m 8 6 e a h @.C C D a & - # X q C D m w + # g i.} N V d 2 ",
"@ 6 i 8 4 1 n i.j.i.G N 3 ; o.l y A C A u = t Q q # & 2 6 2 # X - K 9.C m m 6 - ",
"< > - & ; h 9.d.4.R Z V 1 7 D d 3 c A 8 < B o.N q - < n g g , . 3  .Q V v r > + ",
"+.j i 1 ; m h.} C C v 7 X q D l < 6 3 e >.[ x c e ; 6 a.#.p.;.7 < @.X.x q 1 & ; ",
"` v v l 1 } / m V l 2 , < 1 D l 2 X 0 e.A c N v 7 ; $ i b x m z - 1 a 5 , * % I "
};
